<svg width="36" height="36" viewBox="0 0 36 36" fill="none" xmlns="http://www.w3.org/2000/svg">
<path d="M28.5 13.5C28.5 12.1211 28.2284 10.7557 27.7007 9.48182C27.1731 8.20791 26.3996 7.05039 25.4246 6.07538C24.4496 5.10036 23.2921 4.32694 22.0182 3.79926C20.7443 3.27159 19.3789 3 18 3C16.6211 3 15.2557 3.27159 13.9818 3.79926C12.7079 4.32694 11.5504 5.10036 10.5754 6.07538C9.60036 7.05039 8.82694 8.20791 8.29926 9.48182C7.77159 10.7557 7.5 12.1211 7.5 13.5C7.5 15.5805 8.1135 17.5155 9.1575 19.1475H9.1455L18 33L26.8545 19.1475H26.844C27.9254 17.4624 28.5002 15.5022 28.5 13.5ZM18 18C16.8065 18 15.6619 17.5259 14.818 16.682C13.9741 15.8381 13.5 14.6935 13.5 13.5C13.5 12.3065 13.9741 11.1619 14.818 10.318C15.6619 9.47411 16.8065 9 18 9C19.1935 9 20.3381 9.47411 21.182 10.318C22.0259 11.1619 22.5 12.3065 22.5 13.5C22.5 14.6935 22.0259 15.8381 21.182 16.682C20.3381 17.5259 19.1935 18 18 18Z" fill="#282828"/>
</svg>
