<svg width="360" height="100" viewBox="0 0 360 100" fill="none" xmlns="http://www.w3.org/2000/svg">
<mask id="mask0_2261_21325" style="mask-type:luminance" maskUnits="userSpaceOnUse" x="110" y="28" width="140" height="45">
<path d="M250 28H110V73H250V28Z" fill="white"/>
</mask>
<g mask="url(#mask0_2261_21325)">
<path fill-rule="evenodd" clip-rule="evenodd" d="M110 41.8839L121.402 28H153.486V59.1161L142.517 73.0046H110.004V41.893H110.009L110 41.8839ZM205.976 41.8839L217.374 28H249.457V59.1161L238.489 73.0046H205.976V41.893H205.981L205.976 41.8839ZM169.384 28L157.982 41.8839L157.991 41.893H157.982V73.0046H190.499L201.467 59.1161V28H169.384ZM174.181 66.7933C168.598 66.7933 164.388 62.4646 164.388 56.7159V56.6564C164.388 50.8848 168.692 46.5332 174.404 46.5332C175.93 46.5026 177.444 46.8153 178.838 47.4493C180.022 48.0145 181.07 48.8385 181.909 49.8633L178.57 53.2896L178.289 52.9277C177.802 52.3472 177.197 51.8826 176.517 51.5661C175.837 51.2497 175.098 51.0891 174.351 51.0955C171.571 51.0955 169.474 53.4637 169.474 56.5922V56.6472C169.474 59.8261 171.571 62.2218 174.351 62.2218C175.482 62.252 176.589 61.8851 177.489 61.182C177.861 60.8812 178.208 60.5487 178.526 60.188L178.552 60.1559L178.593 60.0918L181.82 63.3944C181.043 64.3312 180.099 65.1084 179.04 65.6847C177.533 66.4565 175.865 66.8372 174.181 66.7933ZM213.789 46.9456V66.3995H218.71V61.6814H221.754C226.769 61.6814 229.746 58.3513 229.746 54.073V53.9173C229.746 49.7443 226.737 46.9456 221.892 46.9456H213.789ZM221.539 57.3069H218.705V51.3567H221.508C223.716 51.3567 224.985 52.5797 224.985 54.412C224.985 56.0427 223.631 57.3069 221.539 57.3069ZM115.931 66.3306H116.221C116.751 66.3265 117.28 66.2713 117.799 66.1656C119.077 65.9023 120.254 65.266 121.187 64.3334C122.394 63.115 123.216 61.5713 123.735 57.6686C124.017 55.5203 124.155 51.4344 124.155 51.4344H128.853V66.0191L133.483 65.9778V47.0141H119.824C119.846 47.6554 119.846 49.4052 119.846 50.6007C119.824 53.2666 119.623 56.8578 119.109 58.7221C118.76 60.023 117.589 61.5988 116.248 61.9927H116.199C116.111 62.0109 116.021 62.0201 115.931 62.0202V66.3306Z" fill="#7F7F80"/>
</g>
</svg>
