<svg width="360" height="100" viewBox="0 0 360 100" fill="none" xmlns="http://www.w3.org/2000/svg">
<path d="M160.21 47.7936C157.808 47.6625 155.4 47.6625 152.997 47.7936C146.205 48.3779 145.298 51.1759 144.12 53.6363L138.648 66.7046H143L147.429 56.4408V56.3889C149.941 50.1762 152.609 50.689 156.455 50.715L150.148 66.3929L150.019 66.7046H154.836L161.622 49.897C161.716 49.665 161.753 49.4133 161.727 49.164C161.702 48.9147 161.616 48.6755 161.476 48.4676C161.336 48.2597 161.148 48.0894 160.927 47.9718C160.706 47.8543 160.46 47.7931 160.21 47.7936Z" fill="#7F7F80"/>
<path d="M141.424 49.7021C140.498 48.4037 138.491 47.7545 135.467 47.7545C127.516 47.7221 125.405 52.9156 125.308 53.1817L121.145 62.9196L119.48 66.6655H124.35L129.802 54.0517V53.9997C130.119 53.0908 130.692 52.2934 131.452 51.7037C132.211 51.1139 133.124 50.7569 134.082 50.6759H134.373C134.783 50.6278 135.199 50.6895 135.578 50.8549C135.957 51.0202 136.285 51.2833 136.529 51.6172C136.71 51.9822 136.805 52.3844 136.805 52.7923C136.805 53.2 136.71 53.6023 136.529 53.9672L135.48 56.3887H129.407L128.021 59.6347H134.12L131.084 66.6589H135.921L141.638 53.4349C141.814 53.0212 141.927 52.5836 141.975 52.1366C142.093 51.2891 141.897 50.4276 141.424 49.7151" fill="#7F7F80"/>
<path d="M183.59 47.7417H165.44L164.171 50.6696H170.471L163.562 66.6591L168.406 66.6656L175.302 50.6696H182.327L183.59 47.7417Z" fill="#7F7F80"/>
<path d="M197.31 50.0738C196.76 49.2147 195.969 48.5373 195.038 48.1262C193.781 47.6547 192.441 47.4449 191.1 47.5095H185.921L177.762 66.4333H182.579L189.132 51.3137C189.267 51.1378 189.443 50.9966 189.643 50.9018C189.843 50.807 190.063 50.7613 190.284 50.7684C190.935 50.7192 191.59 50.7673 192.227 50.9112C192.675 51.0345 193.071 51.3012 193.354 51.6708C193.656 52.0929 193.808 52.6057 193.781 53.125C193.797 53.9892 193.526 54.8342 193.011 55.527C192.553 56.1906 191.884 56.6782 191.114 56.9097C190.072 57.1368 189.005 57.222 187.941 57.1629H187.293L185.998 60.2531H188.387C190.874 60.2531 192.654 60.0064 193.826 59.5065C195.126 58.9531 196.238 58.0329 197.025 56.8578C197.767 55.7161 198.148 54.3768 198.119 53.0146C198.138 51.9739 197.85 50.9508 197.291 50.0738" fill="#7F7F80"/>
<path d="M123.685 50.6695L124.947 47.7222H110.165L102 66.6655H110.035C112.528 66.6655 114.303 66.4188 115.474 65.919C116.79 65.3749 117.917 64.4535 118.712 63.2703C119.479 62.1457 119.89 60.8153 119.89 59.453C119.908 58.4124 119.62 57.3895 119.062 56.5122C118.511 55.6638 117.723 54.9975 116.795 54.5971C115.553 54.1825 114.252 53.9763 112.943 53.9868L111.596 57.1809C112.389 57.1705 113.181 57.2205 113.966 57.3301C114.408 57.4623 114.794 57.7359 115.067 58.1092C115.366 58.5325 115.515 59.0449 115.487 59.5633C115.504 60.4276 115.232 61.2726 114.717 61.9654C114.251 62.6076 113.586 63.0777 112.826 63.3027C111.781 63.5218 110.713 63.6047 109.647 63.5494H108.158L113.726 50.6435L123.685 50.6695Z" fill="#7F7F80"/>
<path d="M223.88 64.5362H224.625H224.67L225.408 64.5816L226.878 64.6725C228.264 64.7859 229.643 64.9723 231.009 65.2308L232.641 61.6148L231.845 62.0432C231.215 62.3936 230.545 62.6661 229.85 62.8547C229.178 63.0167 228.489 63.0973 227.798 63.0949C227.205 63.1265 226.613 63.0368 226.056 62.8315C225.5 62.6262 224.991 62.3093 224.56 61.9004C224.144 61.4402 223.824 60.9008 223.619 60.3142C223.414 59.7277 223.329 59.1059 223.368 58.4857C223.35 57.2727 223.628 56.0735 224.178 54.9931C224.691 53.9964 225.477 53.1674 226.445 52.604C227.466 52.0117 228.631 51.7109 229.811 51.7341C231.155 51.7444 232.47 52.1262 233.612 52.8377L234.188 53.2078L235.646 49.8255L234.59 49.3321C233.126 48.7104 231.551 48.3923 229.96 48.3973C228.066 48.3689 226.194 48.8152 224.515 49.6957C222.956 50.5365 221.679 51.819 220.844 53.3831C219.965 55.0407 219.519 56.8944 219.548 58.7713C219.531 60.1599 219.856 61.5313 220.494 62.7639C220.83 63.4051 221.268 63.9881 221.789 64.4907H222.436L223.88 64.5362Z" fill="#7F7F80"/>
<path d="M217.255 53.0066C216.844 51.7267 216.064 50.5972 215.014 49.7607C213.908 48.9064 212.602 48.3519 211.22 48.1507C209.893 47.9221 208.534 47.9663 207.225 48.2806C205.922 48.6188 204.706 49.2319 203.657 50.0788C202.535 50.9683 201.6 52.0714 200.905 53.3248C200.173 54.6564 199.68 56.1067 199.448 57.6094C199.202 59.0275 199.301 60.4843 199.74 61.8551C200.153 63.1339 200.932 64.2627 201.98 65.1011C202.591 65.5988 203.281 65.9915 204.02 66.2631C205.315 65.984 206.61 65.7308 207.905 65.5165C209.705 65.2222 211.505 64.9928 213.305 64.8284C214.111 64.178 214.82 63.415 215.409 62.5627C216.516 60.9845 217.245 59.1718 217.54 57.2653C217.795 55.8443 217.699 54.3821 217.261 53.0066H217.255ZM213.59 56.7395C213.377 58.0538 212.904 59.3122 212.198 60.4399C211.589 61.4765 210.712 62.3289 209.659 62.9068C208.709 63.3974 207.625 63.5659 206.571 63.3872C206.026 63.3331 205.5 63.1553 205.033 62.8675C204.566 62.5795 204.171 62.1889 203.877 61.7253C203.29 60.6547 203.107 59.4083 203.359 58.2131C203.571 56.8925 204.044 55.6277 204.751 54.4933C205.374 53.4526 206.27 52.6037 207.341 52.0394C208.274 51.5452 209.342 51.3654 210.385 51.5265C210.93 51.5862 211.455 51.7676 211.921 52.0575C212.387 52.3474 212.783 52.7382 213.078 53.2014C213.686 54.2743 213.877 55.534 213.616 56.7395" fill="#7F7F80"/>
<path d="M180.316 73.0859H183.528V73.6117H180.976V77.5323H180.316V73.0859Z" fill="#7F7F80"/>
<path d="M184.059 77.5322V73.0858H185.93C186.181 73.0827 186.432 73.0979 186.681 73.1313C186.898 73.1587 187.107 73.2293 187.296 73.339C187.462 73.4454 187.598 73.5929 187.691 73.7674C187.795 73.9536 187.849 74.164 187.846 74.3775C187.848 74.5561 187.812 74.7331 187.742 74.8973C187.672 75.0615 187.568 75.2094 187.438 75.3318C187.023 75.6434 186.504 75.7849 185.988 75.7277H184.693V77.5322H184.059ZM184.706 75.2019H186.001C186.318 75.2304 186.636 75.1553 186.907 74.9877C186.996 74.9166 187.066 74.8252 187.113 74.7214C187.159 74.6175 187.179 74.5041 187.173 74.3905C187.177 74.2203 187.123 74.0537 187.02 73.919C186.916 73.7841 186.769 73.6893 186.603 73.6506C186.389 73.6156 186.172 73.6026 185.956 73.6116H184.661L184.706 75.2019Z" fill="#7F7F80"/>
<path d="M188.027 73.0859H188.675L190.294 75.8122L191.705 73.0859H192.353L190.514 76.5457C190.366 76.8564 190.171 77.143 189.938 77.396C189.754 77.541 189.523 77.6127 189.29 77.5972C189.07 77.5923 188.852 77.5552 188.643 77.4869V76.987C188.815 77.0777 189.005 77.1245 189.2 77.1233C189.35 77.1255 189.497 77.075 189.614 76.9805C189.788 76.7953 189.918 76.5736 189.996 76.3315L188.027 73.0859Z" fill="#7F7F80"/>
<path d="M192.934 73.0859H196.831V77.5323H196.171V73.6117H193.587V77.5323H192.934V73.0859Z" fill="#7F7F80"/>
<path d="M197.91 73.0859H201.808V77.5323H201.154V73.6117H198.564V77.5323H197.91V73.0859Z" fill="#7F7F80"/>
<path d="M202.363 77.5323L204.267 73.0859H204.953L206.98 77.5323H206.248L205.672 76.1887H203.6L203.011 77.5323H202.363ZM203.794 75.7083H205.471L204.953 74.475C204.798 74.105 204.681 73.8259 204.604 73.5533C204.529 73.8449 204.43 74.1295 204.306 74.4036L203.794 75.7083Z" fill="#7F7F80"/>
<path d="M209.434 73.0863H210.081V75.0336C210.308 75.0581 210.537 75.003 210.728 74.8778C210.928 74.6591 211.085 74.4062 211.195 74.1313C211.286 73.9035 211.401 73.686 211.538 73.4822C211.636 73.3512 211.765 73.2464 211.913 73.1771C212.083 73.0937 212.269 73.0514 212.457 73.0538H212.858V73.5601H212.593C212.426 73.5477 212.261 73.5961 212.127 73.6964C211.975 73.8685 211.854 74.0663 211.771 74.2806C211.679 74.544 211.536 74.7867 211.35 74.9946C211.226 75.0964 211.087 75.1755 210.935 75.2283C211.336 75.3708 211.674 75.6514 211.888 76.0202L212.904 77.5002H212.075L211.253 76.2928C211.089 76.053 210.895 75.8349 210.677 75.6437C210.508 75.5095 210.296 75.4425 210.081 75.4555V77.5326H209.434V73.0863Z" fill="#7F7F80"/>
<path d="M213.184 75.3709C213.164 75.0526 213.212 74.7337 213.323 74.435C213.435 74.1364 213.608 73.8647 213.831 73.6378C214.059 73.4215 214.328 73.2527 214.621 73.1413C214.915 73.0299 215.227 72.978 215.541 72.9887C215.972 72.9802 216.398 73.083 216.777 73.2872C217.133 73.4698 217.426 73.7546 217.619 74.1051C217.812 74.4758 217.913 74.8878 217.913 75.3059C217.913 75.7241 217.812 76.1361 217.619 76.5068C217.418 76.8565 217.119 77.1389 216.758 77.3182C216.383 77.5 215.971 77.5933 215.554 77.5908C215.118 77.5978 214.688 77.4928 214.304 77.2858C213.95 77.1004 213.659 76.8133 213.469 76.4614C213.28 76.1223 213.182 75.7399 213.184 75.3514V75.3709ZM213.831 75.3514C213.833 75.6882 213.933 76.0172 214.118 76.2982C214.304 76.5792 214.566 76.8 214.875 76.9336C215.183 77.0672 215.523 77.1077 215.855 77.0504C216.186 76.9931 216.493 76.8403 216.738 76.6106C216.903 76.4384 217.029 76.2344 217.112 76.0112C217.194 75.7879 217.23 75.5501 217.218 75.3125C217.226 74.9852 217.157 74.6606 217.017 74.3648C216.89 74.0901 216.679 73.8629 216.415 73.7156C216.147 73.5634 215.843 73.485 215.534 73.4885C215.294 73.4743 215.052 73.5142 214.829 73.6051C214.605 73.6961 214.404 73.8358 214.241 74.0142C214.078 74.1926 213.957 74.4052 213.886 74.6365C213.815 74.8678 213.797 75.112 213.831 75.3514Z" fill="#7F7F80"/>
<path d="M218.746 77.5326V73.0862H219.737L220.908 76.2343L221.148 76.8835C221.2 76.7212 221.291 76.481 221.407 76.1694L222.599 73.0732H223.479V77.5196H222.831V73.8132L221.394 77.5326H220.799L219.368 73.7483V77.5326H218.746Z" fill="#7F7F80"/>
<path d="M224.539 73.0859H228.443V77.5323H227.783V73.6117H225.199V77.5323H224.539V73.0859Z" fill="#7F7F80"/>
<path d="M228.969 77.5323L230.853 73.0859H231.559L233.585 77.5323H232.86L232.284 76.1887H230.205L229.662 77.5323H228.969ZM230.4 75.7083H232.077L231.565 74.475C231.404 74.105 231.287 73.8259 231.209 73.5533C231.146 73.8439 231.057 74.1284 230.944 74.4036L230.4 75.7083Z" fill="#7F7F80"/>
<path d="M234.156 77.5323V73.0859H234.81V74.9164H237.387V73.0859H238.041V77.5323H237.387V75.4357H234.81V77.5323H234.156Z" fill="#7F7F80"/>
<path d="M239.148 73.0859H239.738V76.6106L242.379 73.0859H243.033V77.5323H242.444V74.0206L239.802 77.5323H239.148V73.0859Z" fill="#7F7F80"/>
<path d="M244.12 73.0861H244.716V76.6111L247.351 73.0861H247.998V77.533H247.402V74.0209L244.761 77.533H244.113L244.12 73.0861ZM246.586 72.0278H247.001C246.991 72.1413 246.959 72.2516 246.906 72.3521C246.852 72.4526 246.779 72.541 246.69 72.6121C246.491 72.7562 246.249 72.8273 246.004 72.8134C245.757 72.8273 245.512 72.7562 245.311 72.6121C245.223 72.5401 245.151 72.4513 245.098 72.3511C245.044 72.2508 245.011 72.1409 245 72.0278H245.421C245.442 72.1519 245.509 72.2634 245.609 72.3395C245.721 72.4096 245.852 72.4436 245.985 72.4369C246.129 72.4459 246.273 72.412 246.399 72.3395C246.498 72.2626 246.565 72.1515 246.586 72.0278Z" fill="#7F7F80"/>
<path d="M250.731 37.8546C250.732 37.7353 250.695 37.6188 250.627 37.5212C250.558 37.4235 250.461 37.3496 250.349 37.3093C250.286 37.2817 250.219 37.268 250.151 37.2691C250.082 37.2702 250.015 37.2861 249.954 37.3157C249.892 37.3453 249.838 37.3879 249.794 37.4406C249.751 37.4933 249.719 37.5548 249.701 37.6209C249.151 39.7698 248.607 41.9186 248.096 44.1128C247.584 46.3071 247.124 48.4494 246.71 50.6437C246.296 52.838 245.939 55.0387 245.654 57.2589C245.37 59.4792 245.169 61.6605 245.007 63.8742C245.007 63.8742 245.007 64.082 245.13 64.1014C245.148 64.1052 245.167 64.105 245.185 64.101C245.203 64.097 245.219 64.0892 245.234 64.0781C245.249 64.0671 245.261 64.053 245.27 64.0369C245.279 64.0208 245.284 64.003 245.285 63.9846C245.823 60.3361 246.419 56.6942 247.099 53.0781C247.442 51.2669 247.804 49.4622 248.212 47.6769C248.575 46.1318 248.95 44.5932 249.416 43.0936C249.378 44.392 249.346 45.7358 249.339 47.0601C249.339 50.1763 249.423 53.2989 249.617 56.428C249.812 59.5571 250.109 62.6992 250.582 65.8283C250.809 67.3993 251.093 68.9573 251.398 70.5154C251.534 71.1646 251.722 71.9761 251.929 72.8135C251.884 72.7681 248.186 69.9051 247.396 69.4572C245.854 68.58 244.213 67.8892 242.508 67.3993C241.66 67.1721 240.805 66.9708 239.918 66.8215C238.223 66.5271 236.509 66.3536 234.79 66.3021C234.78 66.3002 234.77 66.3005 234.761 66.3028C234.751 66.3052 234.743 66.3097 234.735 66.3159C234.728 66.3221 234.722 66.33 234.718 66.3388C234.713 66.3477 234.712 66.3573 234.712 66.3671C234.708 66.3777 234.706 66.3891 234.707 66.4004C234.708 66.4117 234.712 66.4227 234.717 66.4326C234.722 66.4425 234.73 66.4511 234.739 66.4577C234.748 66.4643 234.759 66.4688 234.77 66.4709C239.257 67.3214 243.686 68.834 245.266 69.7883C247.33 70.9792 249.218 72.4543 250.874 74.1704C252.466 75.8907 254.797 75.4687 254.014 72.2228C254.014 72.2228 250.129 53.5715 250.724 37.8157" fill="#7F7F80"/>
<path d="M255.341 53.5642C254.669 53.5674 254.013 53.3609 253.463 52.9735C253.226 52.8039 253.032 52.5812 252.896 52.3232C252.76 52.0651 252.686 51.7788 252.68 51.487C252.696 51.1844 252.774 50.8883 252.909 50.6171C253.044 50.3458 253.232 50.1051 253.463 49.9097C254.006 49.5079 254.666 49.2979 255.341 49.3125C256.063 49.2858 256.769 49.5339 257.316 50.0071C257.53 50.1899 257.702 50.4172 257.82 50.6733C257.939 50.9294 257.999 51.2081 257.999 51.4903C257.999 51.7724 257.939 52.0511 257.82 52.3072C257.702 52.5634 257.53 52.7906 257.316 52.9735C256.73 53.3612 256.043 53.5667 255.341 53.5642ZM255.341 49.8058C254.801 49.7732 254.269 49.9524 253.858 50.3056C253.67 50.4385 253.518 50.6159 253.415 50.822C253.313 51.0282 253.262 51.2566 253.269 51.487C253.272 51.7165 253.328 51.9424 253.43 52.1479C253.532 52.3534 253.678 52.5335 253.858 52.6749C254.292 52.9847 254.808 53.1566 255.341 53.1682C255.903 53.1581 256.452 52.987 256.921 52.6749C257.103 52.5362 257.251 52.3572 257.353 52.1516C257.455 51.9461 257.508 51.7198 257.508 51.4903C257.508 51.2608 257.455 51.0344 257.353 50.8289C257.251 50.6234 257.103 50.4443 256.921 50.3056C256.481 49.9367 255.912 49.757 255.341 49.8058ZM255.341 50.3056H255.458C256.247 50.3056 256.752 50.5004 256.752 50.9937C256.752 51.2923 256.461 51.487 256.163 51.5909L256.752 52.5775H255.768L255.374 51.9868L255.276 51.6883H255.179V52.5775H254.286V50.3186L255.341 50.3056ZM255.341 51.2923C255.639 51.2923 255.736 51.1949 255.736 50.9937C255.736 50.7925 255.639 50.7016 255.341 50.7016H255.147V51.2923H255.341Z" fill="#7F7F80"/>
<path d="M252.546 22.4556C252.494 22.4266 252.437 22.4085 252.378 22.4023C252.32 22.3961 252.261 22.402 252.204 22.4196C252.148 22.4372 252.096 22.4662 252.051 22.5048C252.006 22.5433 251.969 22.5907 251.943 22.6439L242.684 43.6647L233.386 64.6659C233.338 64.7831 233.316 64.9094 233.321 65.036C233.34 65.2632 233.44 65.476 233.603 65.6348C233.766 65.7936 233.981 65.8876 234.209 65.8994C235.765 65.94 237.317 66.0941 238.851 66.3603C240.393 66.6216 241.91 67.0169 243.384 67.5419C244.869 68.0606 246.288 68.7536 247.612 69.6063C248.927 70.4555 250.1 71.5071 251.089 72.7224C251.178 72.8349 251.295 72.9231 251.427 72.9787C251.559 73.0343 251.703 73.0556 251.846 73.0405C251.945 73.027 252.038 72.993 252.122 72.9407C252.206 72.8885 252.279 72.819 252.334 72.737C252.39 72.655 252.428 72.5622 252.445 72.4646C252.462 72.3671 252.459 72.2669 252.435 72.1706C251.911 69.8141 251.503 67.425 251.18 65.0295C250.856 62.634 250.603 60.232 250.409 57.8235L250.273 56.0187L250.189 54.214C250.111 53.013 250.046 51.8055 249.988 50.6045C249.878 48.4362 249.774 43.7166 249.774 43.4634C249.776 43.4213 249.762 43.38 249.736 43.3469C249.71 43.3137 249.673 43.2906 249.632 43.2816C249.613 43.2779 249.593 43.2782 249.574 43.2825C249.555 43.2868 249.537 43.295 249.521 43.3065C249.505 43.3181 249.492 43.3329 249.482 43.3498C249.472 43.3667 249.466 43.3855 249.464 43.405C249.237 45.5798 249.101 47.774 249.043 49.9748C248.984 52.1756 249.011 54.3893 249.081 56.603C249.153 58.8168 249.282 61.0305 249.444 63.2442C249.587 65.0944 249.755 66.9446 249.962 68.8013C249.703 68.5806 249.431 68.3664 249.153 68.1521C248.571 67.7409 247.963 67.368 247.334 67.0355C246.096 66.3818 244.811 65.8262 243.487 65.3736C242.175 64.9496 240.833 64.6263 239.472 64.4063C238.333 64.205 237.194 64.0493 236.048 63.9194L248.486 34.3942C248.253 35.394 248.026 36.4002 247.8 37.4064C247.178 40.2672 246.623 43.1475 246.135 46.0472C245.648 48.9469 245.257 51.8704 244.964 54.8177C244.685 57.765 244.523 60.7319 244.523 63.7181C244.523 63.7666 244.541 63.8134 244.573 63.8494C244.605 63.8854 244.65 63.9081 244.698 63.9129C244.721 63.9167 244.745 63.9153 244.768 63.9089C244.791 63.9024 244.812 63.8911 244.83 63.8756C244.847 63.8601 244.862 63.8409 244.871 63.8193C244.881 63.7977 244.886 63.7743 244.886 63.7506C244.886 63.1858 244.886 62.6275 244.931 62.0692C245.138 59.1348 245.481 56.2265 245.909 53.3246C246.42 49.8839 247.055 46.4756 247.767 43.0869C248.48 39.6981 249.269 36.3418 250.118 32.9985C250.966 29.6551 251.872 26.3313 252.804 23.0529C252.833 22.9432 252.822 22.8273 252.775 22.7244C252.728 22.6216 252.647 22.5381 252.546 22.4881" fill="#7F7F80"/>
<path d="M243.052 70.4043C241.425 69.5778 239.726 68.9021 237.976 68.3855C236.158 67.8449 234.309 67.4115 232.44 67.0873C230.524 66.7431 228.592 66.4982 226.651 66.3538L225.188 66.2629L224.45 66.224H223.711L222.235 66.1851H220.753C216.778 66.2097 212.811 66.5526 208.89 67.2106C205.001 67.8453 201.172 68.805 197.443 70.0797C197.392 70.0987 197.351 70.1361 197.327 70.1842C197.303 70.2322 197.298 70.2877 197.313 70.3393C197.326 70.3827 197.352 70.4208 197.388 70.4478C197.425 70.4747 197.469 70.489 197.514 70.4886H197.559C201.346 69.5225 205.183 68.7662 209.052 68.2233C211.027 67.9701 212.937 67.7364 214.88 67.6196C215.301 67.5806 215.748 67.5547 216.337 67.5222H216.855C217.165 67.5222 217.502 67.4833 217.787 67.4767H218.564C219.153 67.4767 219.762 67.4768 220.357 67.4378H221.057C224.764 67.3629 228.472 67.5711 232.149 68.061C235.82 68.559 239.424 69.4713 242.89 70.7807C242.916 70.7871 242.943 70.7871 242.968 70.7807C243.009 70.7812 243.048 70.7698 243.081 70.7478C243.115 70.7259 243.141 70.6944 243.156 70.6574C243.178 70.6099 243.182 70.5555 243.165 70.5058C243.148 70.4561 243.112 70.4149 243.066 70.3912" fill="#7F7F80"/>
</svg>
