<svg width="360" height="100" viewBox="0 0 360 100" fill="none" xmlns="http://www.w3.org/2000/svg">
<mask id="mask0_2261_21332" style="mask-type:luminance" maskUnits="userSpaceOnUse" x="116" y="22" width="128" height="56">
<path d="M243.135 22H116V78H243.135V22Z" fill="white"/>
</mask>
<g mask="url(#mask0_2261_21332)">
<path d="M139.255 41.3126H135.715C135.715 41.0489 135.043 39.0347 132.199 39.0347C130.115 39.0347 129.674 40.1222 129.674 40.8466C129.674 42.5302 132.496 42.8698 134.178 43.2943C136.078 43.773 139.801 44.7539 139.801 48.4861C139.801 50.5563 138.682 51.9039 137.694 52.6825C136.39 53.6923 134.569 54.2107 132.435 54.2107C127.153 54.2107 124.845 51.2084 124.598 48.3307H128.624C128.702 48.972 129.516 51.1018 132.564 51.1018C135.168 51.1018 135.48 49.7289 135.48 49.1581C135.48 47.5286 133.188 47.1439 131.169 46.6218C129.082 46.0799 125.508 45.1965 125.508 41.3632C125.508 38.5397 127.565 35.9258 132.407 35.9258C138.577 35.9276 139.255 40.3914 139.255 41.3126Z" fill="#7F7F80"/>
<path d="M154.264 49.5773C154.077 50.5438 152.817 54.2127 147.908 54.2127C145.719 54.2127 144.104 53.3546 143.115 52.3737C142.203 51.4669 141.215 49.8573 141.215 47.3734C141.215 44.4741 142.515 42.8393 143.556 41.9595C145.094 40.6661 146.76 40.4836 147.931 40.4836C150.458 40.4836 152.047 41.6235 152.931 42.6875C153.74 43.6449 154.468 45.2238 154.468 47.4529V48.1249H145.374C145.374 49.8627 146.046 51.624 148.087 51.624C149.827 51.624 150.534 50.2909 150.692 49.5773H154.264ZM150.485 45.9247C150.485 45.2816 150.192 43.0741 147.984 43.0741C145.777 43.0741 145.374 45.0106 145.374 45.9247H150.485Z" fill="#7F7F80"/>
<path d="M161.41 40.7439H164.169V43.4644H161.41V49.3931C161.41 49.8592 161.41 50.43 161.826 50.869C162.164 51.2068 162.605 51.2574 163.023 51.2574H164.456V53.9797C163.571 54.1062 162.427 54.2128 161.591 54.2128C160.629 54.2128 159.327 54.005 158.466 53.0982C157.479 52.0649 157.53 50.766 157.53 49.4997V43.4644H155.445V40.7439H157.53L157.894 36.7046H161.41V40.7439Z" fill="#7F7F80"/>
<path d="M189.037 53.9525H186.849L186.2 52.0124C185.755 52.6085 185.156 53.1233 184.584 53.463C183.621 54.0067 182.37 54.2144 181.278 54.2144C179.664 54.2144 177.633 53.8748 175.941 52.0124C174.38 50.3017 173.57 47.6082 173.57 45.305C173.57 42.9458 174.248 40.3048 175.808 38.5164C177.659 36.3938 179.974 35.9277 181.823 35.9277C187.214 35.9277 188.734 39.5063 188.985 42.1961H184.947C184.871 41.5494 184.611 40.7726 184.221 40.2524C183.805 39.6833 183.049 39.0366 181.747 39.0366C180.73 39.0366 179.533 39.4503 178.752 40.9533C178.545 41.367 178.051 42.4544 178.051 45.0449C178.051 46.5732 178.231 48.2568 178.883 49.3442C179.431 50.2493 180.365 51.1073 181.901 51.1073C182.868 51.1073 183.647 50.7443 184.168 50.2258C184.687 49.7073 185.082 48.8294 185.082 47.8955V47.4529H181.511V44.4217H189.039L189.037 53.9525Z" fill="#7F7F80"/>
<path d="M191.918 53.9525V40.7437H195.305V43.6701H195.358C195.485 42.6603 195.983 41.9612 196.32 41.6C196.762 41.1339 197.594 40.4854 198.948 40.4854C199.185 40.4854 199.419 40.5143 199.653 40.5378V44.008H199.028C198.378 44.008 197.752 44.138 197.256 44.4487C195.981 45.2508 195.797 46.4954 195.797 47.8918V53.9507L191.918 53.9525Z" fill="#7F7F80"/>
<path d="M211.914 42.2971C212.539 42.9203 213.892 44.5498 213.892 47.3209C213.892 49.4452 213.06 51.3366 211.81 52.5289C210.9 53.3833 209.415 54.2125 207.306 54.2125C205.194 54.2125 203.712 53.3833 202.8 52.5289C201.551 51.3366 200.719 49.4452 200.719 47.3209C200.719 44.5498 202.074 42.9185 202.7 42.2971C204.237 40.7942 206.004 40.4834 207.308 40.4834C208.607 40.4834 210.377 40.7942 211.914 42.2971ZM205.455 44.1108C204.829 45.0682 204.778 46.3363 204.778 47.3209C204.778 49.1074 205.063 49.9619 205.377 50.5074C205.871 51.3619 206.603 51.622 207.306 51.622C208.007 51.622 208.739 51.3601 209.233 50.5074C209.547 49.9619 209.833 49.1092 209.833 47.3209C209.833 46.3363 209.782 45.0682 209.157 44.1108C208.714 43.4117 208.14 43.0739 207.306 43.0739C206.473 43.0739 205.897 43.4135 205.455 44.1108Z" fill="#7F7F80"/>
<path d="M219.682 40.7437V48.6957C219.682 49.1853 219.682 50.1192 220.121 50.6882C220.408 51.0766 220.902 51.2844 221.447 51.2844C222.072 51.2844 222.749 51.0007 223.194 50.4046C223.712 49.7326 223.794 48.9324 223.794 48.2567V40.7455H227.671V53.9543H224.077V51.5969H224.028C223.349 53.1522 221.994 54.2144 220.045 54.2144C218.845 54.2144 217.962 53.8513 217.284 53.2787C215.98 52.1912 215.797 50.6882 215.797 49.3189V40.7455L219.682 40.7437Z" fill="#7F7F80"/>
<path d="M230.508 58.1994V40.7437H234.102V42.8681C234.909 41.3145 236.472 40.4854 238.138 40.4854C241.394 40.4854 243.138 43.3089 243.138 47.2216C243.138 52.193 240.559 54.2144 237.982 54.2144C236.394 54.2144 235.199 53.5659 234.389 52.2707V58.2012H230.508V58.1994ZM234.389 48.6704C234.389 50.5094 235.246 51.624 236.652 51.624C238.583 51.624 239.071 49.5249 239.071 47.2975C239.071 44.2934 238.136 43.074 236.652 43.074C235.272 43.074 234.389 44.241 234.389 45.8216V48.6704Z" fill="#7F7F80"/>
<path d="M171.312 34.291H167.367V53.9127H171.312V34.291Z" fill="#7F7F80"/>
<path d="M171.294 34.2964H167.348V53.9163H171.294V34.2964Z" fill="#7F7F80"/>
<path d="M116 22.5293V77.4707H171.3V57.9105H167.35V73.5399H120.001L119.987 26.4746L167.35 26.4601V30.3928H171.3V22.5293H116Z" fill="#7F7F80"/>
</g>
</svg>
