<svg width="360" height="100" viewBox="0 0 360 100" fill="none" xmlns="http://www.w3.org/2000/svg">
<path d="M141.035 40.9585C141.035 47.3789 135.802 52.5835 129.346 52.5835C122.89 52.5835 117.656 47.3789 117.656 40.9585C117.656 34.5382 122.89 29.3335 129.346 29.3335C135.802 29.3335 141.035 34.5382 141.035 40.9585Z" fill="#7F7F80"/>
<path d="M129.346 68.0835C122.884 68.0835 117.656 68.5065 117.656 68.929V69.8217C117.656 70.2442 122.884 70.6668 129.346 70.6668C135.808 70.6668 141.035 70.2442 141.035 69.8217V68.929C141.072 68.5065 135.808 68.0835 129.346 68.0835Z" fill="#7F7F80"/>
<path d="M117.656 60.9792V59.6875C117.656 57.5473 122.89 55.8125 129.346 55.8125C135.802 55.8125 141.035 57.5473 141.035 59.6875V60.9792C141.035 63.1193 135.802 64.8542 129.346 64.8542C122.89 64.8542 117.656 63.1193 117.656 60.9792Z" fill="#7F7F80"/>
<path d="M181.425 55.4904C182.927 56.9132 184.831 57.6429 187.139 57.6429C187.762 57.6429 190.143 57.5335 191.791 56.5849L194.062 60.0871C194.062 60.0871 191.535 62.1303 186.883 62.1303C183.183 62.1303 180.106 60.9263 177.798 58.7373C175.381 56.4391 174.172 53.5205 174.172 49.9817C174.172 46.4067 175.381 43.4882 177.762 41.2263C180.069 39.0738 183.146 37.8335 186.883 37.8335C191.535 37.8335 194.062 39.8764 194.062 39.8764L191.791 43.3786C189.886 42.2842 186.956 42.3207 186.956 42.3207C184.758 42.3207 182.89 43.0503 181.351 44.5096C179.886 45.9324 179.154 47.7565 179.154 49.9817C179.154 52.2072 179.886 54.0313 181.425 55.4904Z" fill="#7F7F80"/>
<path d="M198.199 61.6924H203.035V42.6124H213.071V61.6924H217.87V38.3076H198.199V61.6924Z" fill="#7F7F80"/>
<path fill-rule="evenodd" clip-rule="evenodd" d="M168.405 48.486C166.83 47.0631 164.669 46.3336 161.922 46.3336H156.867V42.6124H169.138V38.3076H152.031V61.6924H161.922C164.669 61.6924 166.83 60.999 168.442 59.5763C170.017 58.1171 170.823 56.293 170.823 54.0311C170.823 51.8057 170.017 49.9452 168.405 48.486ZM164.815 56.5483C164.046 57.132 162.984 57.4604 161.555 57.4604H156.867V50.383H161.555C162.947 50.383 164.009 50.7113 164.779 51.3316C165.548 51.9517 165.951 52.8272 165.951 53.9582C165.951 55.0891 165.548 55.9646 164.815 56.5483Z" fill="#7F7F80"/>
<path fill-rule="evenodd" clip-rule="evenodd" d="M233.445 46.3336C236.192 46.3336 238.353 47.0631 239.928 48.486C241.54 49.9452 242.346 51.8057 242.346 54.0311C242.346 56.293 241.54 58.1171 239.965 59.5763C238.353 60.999 236.192 61.6924 233.445 61.6924H223.555V38.3076H240.661V42.6124H228.39V46.3336H233.445ZM233.078 57.4604C234.507 57.4604 235.569 57.132 236.339 56.5483C237.071 55.9646 237.474 55.0891 237.474 53.9582C237.474 52.8272 237.071 51.9517 236.302 51.3316C235.533 50.7113 234.47 50.383 233.078 50.383H228.39V57.4604H233.078Z" fill="#7F7F80"/>
</svg>
