<svg width="360" height="100" viewBox="0 0 360 100" fill="none" xmlns="http://www.w3.org/2000/svg">
<mask id="mask0_2261_21365" style="mask-type:luminance" maskUnits="userSpaceOnUse" x="117" y="28" width="126" height="44">
<path d="M242.701 28H117.301V72H242.701V28Z" fill="white"/>
</mask>
<g mask="url(#mask0_2261_21365)">
<path d="M157.789 27.9995V28.0077L153.871 31.8906V27.9995H149.952L143.422 34.47V51.2934H146.034V35.7645L151.259 30.5879V51.2934H153.871V35.7645L159.095 30.5879V51.2934H161.707V27.9995H157.789Z" fill="#7F7F80"/>
<path d="M117.302 51.2936H127.751V27.9997H123.832L117.301 34.4703L117.302 34.4718V51.2936ZM125.139 30.5881V48.7053H119.915V35.7644L125.139 30.5881Z" fill="#7F7F80"/>
<path d="M140.812 27.9995H130.363V51.2932H140.812V27.9995ZM132.975 30.5877H138.2V48.7053H132.975V30.5877Z" fill="#7F7F80"/>
<path d="M117.301 56.4712H161.708V53.8828H117.301V56.4712Z" fill="#7F7F80"/>
<path d="M117.301 59.0591V71.9999H119.913V69.412H135.586V59.0591H117.301ZM132.974 66.8237H119.913V61.6474H132.974V66.8237Z" fill="#7F7F80"/>
<path d="M138.199 59.0591V69.412H148.648V71.9999H151.26V69.412H161.709V59.0591H138.199ZM140.811 61.6474H148.648V66.8237H140.811V61.6474ZM159.097 66.8237H151.26V61.6474H159.097V66.8237Z" fill="#7F7F80"/>
<path d="M202.983 57.1156H198.289V45.4712H206.045V47.4987H200.579V49.8532H202.983C205.338 49.8532 206.786 51.3596 206.786 53.4846C206.786 55.6114 205.354 57.1156 202.983 57.1156ZM202.868 51.8823H200.579V55.0888H202.868C203.889 55.0888 204.498 54.4508 204.498 53.4846C204.498 52.5369 203.889 51.8823 202.868 51.8823Z" fill="#7F7F80"/>
<path d="M216.575 57.1156L215.882 55.0558H211.716L211.007 57.1156H208.621L212.886 45.4712H214.68L218.962 57.1156H216.575ZM213.841 48.9059L212.359 53.1415H215.273L213.841 48.9059Z" fill="#7F7F80"/>
<path d="M227.62 57.1156V52.2408H223.651V57.1156H221.363V45.4712H223.651V50.2296H227.62V45.4712H229.91V57.1156H227.62Z" fill="#7F7F80"/>
<path d="M233.496 57.1156V45.4712H235.784V50.9995L239.572 45.4712H242.307L238.37 50.9347L242.701 57.1156H239.902L235.784 51.0312V57.1156H233.496Z" fill="#7F7F80"/>
<path d="M182.604 71.9959H179.992V28.0063H182.604V71.9959Z" fill="#7F7F80"/>
</g>
</svg>
