<svg width="360" height="100" viewBox="0 0 360 100" fill="none" xmlns="http://www.w3.org/2000/svg">
<path d="M170.17 43.9925L174.046 41.0958H161.066V58.4491H174.046V55.5501H164.774V51.1209H172.699V48.2243H164.774V43.9925H170.17Z" fill="#7F7F80"/>
<path d="M151.259 47.8537H146.762V43.9923H153.956L157.834 41.0957H143.055V58.449H150.78C155.108 58.449 157.608 56.4594 157.608 52.995C157.608 49.6725 155.361 47.8537 151.259 47.8537ZM150.64 55.55H146.762V50.7503H150.64C153 50.7503 154.095 51.5467 154.095 53.1658C154.095 54.7849 152.916 55.55 150.64 55.55Z" fill="#7F7F80"/>
<path d="M184.555 41.0957H177.504V58.449H181.211V53.5339H184.584C189.078 53.5339 191.888 51.1497 191.888 47.3148C191.888 43.4799 189.078 41.0957 184.555 41.0957ZM184.471 50.6372H181.185V43.9923H184.471C186.86 43.9923 188.152 45.1856 188.152 47.3148C188.152 49.444 186.86 50.6372 184.471 50.6372Z" fill="#7F7F80"/>
<path d="M136.707 54.6983C135.725 55.2397 134.628 55.5235 133.505 55.5235C130.161 55.5235 127.745 53.1081 127.745 49.7856C127.745 46.4632 130.161 44.0477 133.505 44.0477C134.713 44.0212 135.894 44.4182 136.875 45.1279L139.546 43.1407L139.377 42.9699C137.833 41.5769 135.752 40.8672 133.392 40.8672C130.837 40.8672 128.503 41.7477 126.819 43.338C125.133 44.986 124.177 47.286 124.233 49.6725C124.204 52.0856 125.133 54.4144 126.819 56.1178C128.587 57.7946 130.947 58.7329 133.365 58.6752C136.033 58.6752 138.365 57.7369 139.938 56.0336L137.551 54.2436L136.707 54.6983Z" fill="#7F7F80"/>
<path d="M236.476 41.1246V58.4755H240.184V51.3758H248.08V58.4755H251.79V41.1246H248.08V48.2531H240.184V41.1246H236.476ZM230.099 58.4755H234.003L226.754 41.1246H222.989L215.601 58.4755H219.337L220.826 54.9822H228.694L230.099 58.4755ZM221.95 52.0856L224.815 45.1279L227.512 52.0856H221.95ZM260.107 51.4625H262.409L268.084 58.449H272.86L265.274 49.4728L271.905 41.0957H267.663L262.156 48.537H260.107V41.0957H256.397V58.449H260.107V51.4625ZM203.35 47.8826V44.0212H213.044V41.1246H199.641V58.4755H207.368C211.694 58.4755 214.196 56.4882 214.196 53.0238C214.196 49.7014 211.949 47.8826 207.845 47.8826H203.35ZM203.35 55.5788V50.7792H207.229C209.586 50.7792 210.683 51.5755 210.683 53.1947C210.683 54.8138 209.531 55.6077 207.229 55.6077H203.35V55.5788Z" fill="#7F7F80"/>
<path d="M112.628 40.9829C113.302 41.8634 113.865 42.8282 114.341 43.8507L101.362 53.5342L95.9102 50.0698V45.9245L101.333 49.36L112.628 40.9829Z" fill="#7F7F80"/>
<path d="M90.3723 49.7855C90.3723 49.5858 90.3723 49.4174 90.4012 49.2177L87.1148 49.0469C87.1148 49.2754 87.0859 49.5304 87.0859 49.7566C87.0859 53.7334 88.6882 57.3398 91.2721 59.9525L93.6033 57.5948C91.6089 55.6076 90.3723 52.8529 90.3723 49.7855Z" fill="#7F7F80"/>
<path d="M101.332 38.7092C101.53 38.7092 101.698 38.7092 101.895 38.738L102.064 35.4156C101.837 35.4156 101.585 35.3867 101.361 35.3867C97.4276 35.3867 93.8597 37.0058 91.2734 39.6186L93.6047 41.9763C95.5727 39.9602 98.3249 38.7092 101.332 38.7092Z" fill="#7F7F80"/>
<path d="M101.333 60.8623C101.136 60.8623 100.967 60.8623 100.77 60.8335L100.602 64.1559C100.828 64.1559 101.08 64.1848 101.304 64.1848C105.238 64.1848 108.808 62.5657 111.392 59.9529L109.06 57.5952C107.093 59.6402 104.367 60.8623 101.333 60.8623Z" fill="#7F7F80"/>
<path d="M107.513 40.6411L110.294 38.5673C107.849 36.5801 104.731 35.3579 101.332 35.3579V38.6804C103.637 38.7092 105.771 39.419 107.513 40.6411Z" fill="#7F7F80"/>
<path d="M115.607 49.7855C115.607 48.905 115.523 48.0533 115.381 47.2017L112.319 49.5016C112.319 49.5858 112.319 49.7013 112.319 49.7855C112.319 53.0527 110.913 55.9781 108.695 57.9942L110.913 60.465C113.781 57.8523 115.607 54.0174 115.607 49.7855Z" fill="#7F7F80"/>
<path d="M101.334 60.8623C98.1025 60.8623 95.2083 59.4429 93.2139 57.1982L90.7695 59.4429C93.3823 62.3684 97.1474 64.1848 101.334 64.1848V60.8623Z" fill="#7F7F80"/>
<path d="M93.9979 41.5772L91.7773 39.1064C88.8831 41.7481 87.0859 45.5541 87.0859 49.786H90.3723C90.3723 46.5477 91.7773 43.5957 93.9979 41.5772Z" fill="#7F7F80"/>
</svg>
