<svg width="360" height="100" viewBox="0 0 360 100" fill="none" xmlns="http://www.w3.org/2000/svg">
<mask id="mask0_2261_21424" style="mask-type:luminance" maskUnits="userSpaceOnUse" x="98" y="18" width="164" height="65">
<path d="M261.193 18H98.8086V82.7786H261.193V18Z" fill="white"/>
</mask>
<g mask="url(#mask0_2261_21424)">
<path d="M137.36 59.0543L132.778 51.4408L128.293 59.0543H122.926L129.822 47.588L122.797 36.9486H128.404L132.908 44.0539L137.198 36.9486H142.566L135.651 47.9391L142.755 59.0543H137.36Z" fill="#7F7F80"/>
<path d="M160.128 51.4232C160.128 56.2739 156.475 59.2769 151.69 59.2769C147.473 59.2769 143.92 56.9669 143.574 51.8851H148.355C148.65 53.9593 150.309 54.8511 152.119 54.8511C154.373 54.8511 155.352 53.3403 155.352 51.3816C155.352 49.3351 153.842 48.0601 151.736 48.0601C151.063 48.0231 150.392 48.1621 149.789 48.4633C149.187 48.7647 148.673 49.218 148.299 49.7785H143.704L145.218 36.9355H159.579L159.117 41.1719H148.821L148.415 45.4036C148.415 45.4036 149.491 44.1332 152.761 44.1332C156.696 44.1332 160.151 46.7758 160.151 51.4371" fill="#7F7F80"/>
<path d="M143.935 34.0127C141.519 24.6068 133.866 18.0005 117.986 18.0005H98.8086L101.414 35.6019C103.372 51.4892 109.446 56.5988 120.194 58.4791C120.244 58.4932 120.296 58.4949 120.347 58.4835C120.398 58.4724 120.445 58.4488 120.484 58.4148C120.524 58.3811 120.554 58.338 120.573 58.2894C120.591 58.2411 120.598 58.1886 120.591 58.1372C120.59 58.0685 120.57 58.0017 120.531 57.9448C120.492 57.8881 120.438 57.8442 120.374 57.8185C113.109 54.7603 112.282 44.726 110.73 34.6548L109.529 26.6303H120.476C130.568 26.6303 138.36 26.4732 143.293 34.2622C143.326 34.319 143.373 34.3666 143.429 34.4005C143.486 34.4344 143.55 34.4536 143.616 34.4562C143.661 34.4556 143.705 34.4461 143.746 34.4283C143.787 34.4105 143.824 34.3848 143.855 34.3525C143.886 34.3203 143.91 34.2822 143.926 34.2405C143.942 34.1988 143.95 34.1543 143.948 34.1097C143.954 34.0776 143.954 34.0448 143.948 34.0127" fill="#7F7F80"/>
<path d="M186.325 47.4746C186.325 47.4746 187.471 59.7217 175.056 59.7217C168.501 59.7217 163.453 54.7229 163.453 47.9319C163.453 41.1409 168.534 36.1422 175.25 36.1422C180.432 36.1422 184.557 39.1127 186.132 43.6864H183.18C182.481 42.1726 181.355 40.8963 179.94 40.0147C178.525 39.1331 176.884 38.6847 175.217 38.7247C170.058 38.7247 166.238 42.6422 166.238 47.9967C166.238 53.1847 169.864 57.1992 175.217 57.1992C179.721 57.1992 183.148 54.3304 183.531 49.8075H174.755V47.4975L186.325 47.4746Z" fill="#7F7F80"/>
<path d="M200.427 41.0759V43.8478C200.045 43.8052 199.661 43.7837 199.277 43.783C195.485 43.783 192.852 46.2361 192.852 50.8467V59.2595H190.113V41.3623H192.834V45.3862C193.919 42.702 196.095 41.0066 199.3 41.0066C199.674 41.007 200.047 41.0286 200.418 41.0713" fill="#7F7F80"/>
<path d="M220.176 50.3576C220.161 52.1874 219.604 53.9717 218.577 55.4857C217.55 56.9999 216.097 58.1762 214.403 58.8662C212.709 59.5564 210.848 59.7297 209.055 59.3642C207.263 58.9987 205.618 58.1109 204.329 56.8125C203.04 55.5142 202.164 53.8633 201.811 52.0678C201.458 50.2723 201.644 48.4125 202.346 46.7225C203.047 45.0327 204.233 43.5882 205.754 42.5713C207.275 41.5542 209.063 41.01 210.893 41.0072C212.123 40.9863 213.345 41.2144 214.485 41.6777C215.625 42.141 216.66 42.8299 217.527 43.7034C218.394 44.5768 219.076 45.6163 219.531 46.7597C219.986 47.9034 220.206 49.127 220.176 50.3576ZM204.389 50.3576C204.389 54.3122 207.262 57.1255 210.893 57.1255C214.523 57.1255 217.428 54.3122 217.428 50.3576C217.428 46.4031 214.518 43.5896 210.893 43.5896C207.267 43.5896 204.389 46.3614 204.389 50.3576Z" fill="#7F7F80"/>
<path d="M238.95 41.3654V59.2626H236.215V55.7145C235.64 56.9229 234.724 57.9365 233.58 58.6309C232.436 59.3253 231.114 59.67 229.777 59.6228C225.772 59.6228 223.375 57.0866 223.375 52.721V41.3654H226.091V52.2588C226.091 55.4605 227.601 57.1283 230.553 57.1283C234.132 57.1283 236.197 54.578 236.197 50.5913V41.3516L238.95 41.3654Z" fill="#7F7F80"/>
<path d="M261.148 50.3434C261.148 55.7624 257.587 59.6754 252.64 59.6754C251.229 59.7061 249.835 59.3515 248.61 58.6499C247.384 57.9484 246.373 56.9262 245.684 55.693V67.4735H242.945V41.3671H245.684V45.0629C246.371 43.8158 247.384 42.7793 248.615 42.0655C249.847 41.3516 251.25 40.9871 252.673 41.0114C257.587 41.0114 261.148 44.8965 261.148 50.348V50.3434ZM258.224 50.348C258.224 46.4258 255.68 43.5799 252.049 43.5799C248.419 43.5799 245.611 46.3934 245.611 50.348C245.611 54.3026 248.382 57.1161 252.049 57.1161C255.717 57.1161 258.224 54.3026 258.224 50.348Z" fill="#7F7F80"/>
<path d="M126.412 77.6362C126.779 77.7061 127.108 77.9082 127.336 78.2046C127.58 78.5161 127.708 78.9036 127.696 79.2994C127.712 79.5622 127.664 79.8249 127.558 80.066C127.452 80.3068 127.291 80.5191 127.087 80.6854C126.578 81.0407 125.964 81.2135 125.345 81.1751H122.93V74.5595H125.285C125.829 74.5271 126.367 74.6784 126.814 74.9893C127.001 75.1433 127.148 75.3397 127.244 75.5625C127.34 75.785 127.381 76.0272 127.364 76.2689C127.372 76.5856 127.278 76.8967 127.096 77.1558C126.93 77.3896 126.688 77.5592 126.412 77.6362ZM125.239 75.3587H123.733V77.3036H125.258C126.084 77.3036 126.495 76.9712 126.495 76.3105C126.495 75.6499 126.075 75.3587 125.239 75.3587ZM123.733 80.3482H125.313C126.324 80.3482 126.833 79.9878 126.833 79.2624C126.84 79.1051 126.813 78.9478 126.752 78.8025C126.692 78.657 126.599 78.5268 126.482 78.4215C126.166 78.199 125.781 78.0958 125.396 78.1305H123.733V80.3482Z" fill="#7F7F80"/>
<path d="M129.945 77.0596H131.479C132.088 77.0171 132.69 77.2144 133.155 77.6095C133.529 78.0154 133.737 78.5472 133.737 79.0992C133.737 79.6513 133.529 80.1831 133.155 80.5891C132.926 80.7915 132.66 80.9462 132.37 81.0445C132.081 81.1428 131.774 81.1829 131.47 81.162H129.16V74.5464H129.978L129.945 77.0596ZM129.945 80.349H131.331C131.728 80.3702 132.121 80.2562 132.444 80.0256C132.583 79.9166 132.694 79.7758 132.766 79.6148C132.838 79.4538 132.871 79.2777 132.86 79.1015C132.874 78.9254 132.844 78.7487 132.772 78.5873C132.7 78.4258 132.589 78.2852 132.449 78.1776C132.109 77.9493 131.703 77.8403 131.294 77.8681H129.908L129.945 80.349ZM134.777 81.162V74.5464H135.599V81.162H134.777Z" fill="#7F7F80"/>
<path d="M138.283 77.0596H139.627C140.237 77.0171 140.838 77.2144 141.304 77.6095C141.678 78.0154 141.885 78.5472 141.885 79.0992C141.885 79.6513 141.678 80.1831 141.304 80.5891C141.075 80.7915 140.808 80.9462 140.518 81.0445C140.229 81.1428 139.923 81.1829 139.618 81.162H137.461V74.5464H141.336V75.3595H138.283V77.0596ZM138.283 80.349H139.498C139.895 80.3702 140.287 80.2562 140.611 80.0256C140.75 79.9166 140.86 79.7758 140.933 79.6148C141.005 79.4538 141.037 79.2777 141.027 79.1015C141.041 78.9254 141.01 78.7487 140.939 78.5873C140.867 78.4258 140.756 78.2852 140.616 78.1776C140.275 77.9511 139.869 77.8424 139.461 77.8681H138.283V80.349Z" fill="#7F7F80"/>
<path d="M146.281 81.2544C145.835 81.2664 145.391 81.1871 144.976 81.021C144.562 80.8549 144.185 80.6058 143.87 80.2889C143.377 79.8154 143.037 79.2038 142.897 78.5341C142.756 77.8645 142.821 77.168 143.082 76.5358C143.344 75.9033 143.79 75.3646 144.362 74.9901C144.935 74.6154 145.607 74.4222 146.291 74.4356C146.737 74.4218 147.181 74.5004 147.595 74.6665C148.009 74.8328 148.384 75.0829 148.697 75.4012C149.31 76.0639 149.65 76.9332 149.65 77.836C149.65 78.7386 149.31 79.6079 148.697 80.2704C148.384 80.5921 148.008 80.8457 147.592 81.015C147.176 81.1843 146.73 81.266 146.281 81.2544ZM146.281 80.4413C146.624 80.4617 146.967 80.4069 147.286 80.2808C147.605 80.1547 147.893 79.9604 148.129 79.7115C148.581 79.1936 148.817 78.5225 148.79 77.836C148.801 77.4962 148.745 77.1576 148.624 76.8402C148.502 76.5226 148.318 76.233 148.083 75.988C147.605 75.515 146.961 75.2494 146.288 75.2494C145.616 75.2494 144.971 75.515 144.494 75.988C144.04 76.4962 143.788 77.1541 143.788 77.836C143.788 78.5177 144.04 79.1756 144.494 79.6838C144.724 79.929 145.002 80.123 145.312 80.2537C145.621 80.3842 145.955 80.448 146.291 80.4413H146.281Z" fill="#7F7F80"/>
<path d="M151.164 74.5463H153.049C153.685 74.51 154.316 74.6818 154.845 75.036C155.053 75.2231 155.219 75.4519 155.333 75.7073C155.447 75.9629 155.505 76.2393 155.505 76.5189C155.505 76.7986 155.447 77.075 155.333 77.3306C155.219 77.586 155.053 77.8148 154.845 78.0019C154.31 78.3403 153.681 78.5018 153.049 78.4639H151.986V81.1481H151.164V74.5463ZM151.986 77.6693H153.03C153.428 77.6859 153.824 77.6017 154.18 77.4243C154.341 77.3339 154.47 77.1976 154.552 77.0329C154.635 76.8685 154.666 76.6829 154.642 76.5004C154.666 76.3179 154.635 76.1324 154.552 75.9679C154.47 75.8032 154.341 75.667 154.18 75.5766C153.83 75.4001 153.44 75.3159 153.049 75.3316H151.986V77.6693Z" fill="#7F7F80"/>
<path d="M162.813 77.6371C163.18 77.7081 163.508 77.9101 163.737 78.2053C163.981 78.5171 164.108 78.9045 164.097 79.3003C164.112 79.5631 164.065 79.8256 163.959 80.0667C163.853 80.3077 163.691 80.52 163.487 80.6861C162.977 81.0407 162.362 81.2131 161.741 81.1761H159.316V74.5604H161.668C162.212 74.5282 162.752 74.6795 163.201 74.9899C163.387 75.1447 163.534 75.3413 163.629 75.5638C163.725 75.7864 163.766 76.0281 163.751 76.2696C163.76 76.5872 163.664 76.899 163.478 77.1567C163.316 77.3866 163.082 77.5559 162.813 77.6371ZM161.621 75.3596H160.12V77.3045H161.64C162.466 77.3045 162.882 76.9719 162.882 76.3112C162.882 75.6506 162.462 75.3596 161.621 75.3596ZM160.12 80.3489H161.695C162.711 80.3489 163.219 79.9887 163.219 79.2633C163.227 79.1058 163.2 78.9487 163.139 78.8032C163.078 78.6577 162.986 78.5275 162.868 78.4225C162.551 78.1935 162.163 78.0854 161.774 78.1176H160.12V80.3489Z" fill="#7F7F80"/>
<path d="M168.877 81.162H168.055V74.5464H173.302V81.162H172.48V75.3595H168.877V81.162Z" fill="#7F7F80"/>
<path d="M178.188 81.2527C177.741 81.2648 177.297 81.1852 176.883 81.0191C176.468 80.853 176.091 80.6039 175.777 80.287C175.29 79.8123 174.956 79.2023 174.819 78.5359C174.683 77.8695 174.749 77.1774 175.01 76.5491C175.27 75.9209 175.713 75.3851 176.281 75.0113C176.85 74.6375 177.517 74.4428 178.197 74.4522C178.643 74.4384 179.087 74.517 179.501 74.6831C179.915 74.8494 180.291 75.0995 180.603 75.4178C181.219 76.0789 181.562 76.9488 181.562 77.8524C181.562 78.7561 181.219 79.6261 180.603 80.287C180.289 80.6055 179.912 80.8556 179.496 81.0216C179.08 81.1877 178.635 81.2664 178.188 81.2527ZM178.188 80.4397C178.53 80.4598 178.873 80.405 179.192 80.2789C179.511 80.1528 179.799 79.9585 180.035 79.7096C180.49 79.1935 180.729 78.5216 180.7 77.8341C180.712 77.4941 180.654 77.1554 180.532 76.8378C180.41 76.5205 180.225 76.2308 179.989 75.9861C179.513 75.5121 178.869 75.2461 178.197 75.2461C177.525 75.2461 176.881 75.5121 176.405 75.9861C175.951 76.4943 175.699 77.1522 175.699 77.8341C175.699 78.5158 175.951 79.1737 176.405 79.6819C176.633 79.9275 176.911 80.1218 177.22 80.2523C177.529 80.383 177.862 80.4468 178.197 80.4397H178.188Z" fill="#7F7F80"/>
<path d="M182.455 81.2539L182.137 81.2261V80.4408H182.183C182.258 80.4489 182.334 80.4489 182.409 80.4408C182.95 80.4408 183.268 79.9789 183.361 79.1149C183.361 79.0041 183.402 78.7039 183.435 78.2188L183.518 76.9299C183.582 75.7194 183.61 74.9341 183.61 74.5645H187.767V81.1801H186.945V75.359H184.442C184.433 76.6424 184.353 77.9241 184.201 79.1982C184.173 79.7501 183.997 80.2842 183.693 80.7457C183.544 80.9243 183.353 81.0638 183.137 81.1521C182.921 81.2407 182.687 81.2756 182.455 81.2539Z" fill="#7F7F80"/>
<path d="M190.437 77.0596H191.971C192.58 77.0171 193.182 77.2144 193.648 77.6095C194.021 78.0154 194.229 78.5472 194.229 79.0992C194.229 79.6513 194.021 80.1831 193.648 80.5891C193.418 80.7915 193.151 80.9462 192.862 81.0445C192.573 81.1428 192.267 81.1829 191.962 81.162H189.652V74.5464H190.474L190.437 77.0596ZM190.437 80.349H191.823C192.222 80.3709 192.616 80.2569 192.941 80.0256C193.08 79.9166 193.19 79.7758 193.263 79.6148C193.335 79.4538 193.367 79.2777 193.357 79.1015C193.369 78.9257 193.339 78.7492 193.267 78.588C193.195 78.427 193.085 78.2859 192.946 78.1776C192.603 77.9504 192.196 77.8417 191.786 77.8681H190.424L190.437 80.349Z" fill="#7F7F80"/>
<path d="M198.122 77.6693C198.478 77.735 198.796 77.929 199.018 78.2145C199.25 78.5071 199.373 78.8714 199.365 79.2448C199.381 79.5374 199.321 79.8295 199.193 80.093C199.064 80.3567 198.871 80.5829 198.63 80.7506C198.023 81.1254 197.315 81.3044 196.603 81.2635C196.255 81.2669 195.907 81.2389 195.563 81.1804C195.357 81.1462 195.152 81.1013 194.949 81.0465V80.2473H194.995C195.522 80.4057 196.071 80.4821 196.621 80.4735C197.103 80.4985 197.582 80.3914 198.007 80.164C198.17 80.0733 198.305 79.9389 198.395 79.7756C198.486 79.6123 198.529 79.4266 198.52 79.2401C198.52 78.5101 197.951 78.1499 196.82 78.1499H195.831V77.3369H196.755C197.14 77.36 197.523 77.2668 197.854 77.0688C197.981 76.9871 198.084 76.8738 198.152 76.7401C198.221 76.6064 198.254 76.4569 198.247 76.3066C198.247 75.6274 197.711 75.2902 196.635 75.2902C196.137 75.2983 195.643 75.3744 195.166 75.5166L195.12 75.4935V74.6943C195.654 74.5384 196.208 74.4653 196.764 74.4771C197.371 74.4392 197.973 74.6013 198.478 74.939C198.678 75.0903 198.838 75.2881 198.944 75.515C199.05 75.7419 199.1 75.9915 199.088 76.2418C199.096 76.5694 199.004 76.8916 198.824 77.1657C198.658 77.4123 198.409 77.5908 198.122 77.6693Z" fill="#7F7F80"/>
<path d="M202.949 78.4872L204.602 74.5465H205.526L203.595 78.9214C203.341 79.5631 202.989 80.1615 202.551 80.6956C202.403 80.8705 202.218 81.0109 202.01 81.1076C201.802 81.204 201.575 81.2542 201.346 81.2545C201.252 81.2637 201.158 81.2637 201.064 81.2545V80.4414H201.11H201.318C201.435 80.4418 201.55 80.4194 201.658 80.375C201.766 80.3306 201.864 80.2651 201.946 80.1825C202.18 79.9427 202.373 79.6665 202.519 79.3648L200.066 74.5465H201.036L202.949 78.4872Z" fill="#7F7F80"/>
<path d="M210.139 77.0596H211.483C212.092 77.0171 212.693 77.2144 213.159 77.6095C213.354 77.8052 213.505 78.0395 213.604 78.2972C213.702 78.5551 213.746 78.8306 213.732 79.1061C213.743 79.3811 213.697 79.6552 213.595 79.9106C213.493 80.1662 213.338 80.3975 213.141 80.5891C212.912 80.7915 212.645 80.9462 212.355 81.0445C212.066 81.1428 211.76 81.1829 211.455 81.162H209.316V74.5464H213.192V75.3595H210.139V77.0596ZM210.139 80.349H211.353C211.75 80.3709 212.143 80.2569 212.466 80.0256C212.606 79.9169 212.717 79.776 212.79 79.6152C212.863 79.4542 212.896 79.278 212.887 79.1015C212.9 78.9257 212.869 78.7492 212.797 78.588C212.725 78.427 212.615 78.2859 212.476 78.1776C212.133 77.9511 211.726 77.8424 211.316 77.8681H210.139V80.349Z" fill="#7F7F80"/>
<path d="M217.132 78.4871L218.786 74.5464H219.71L217.779 78.9213C217.525 79.563 217.172 80.1614 216.735 80.6955C216.587 80.8704 216.402 81.0108 216.194 81.1075C215.986 81.2039 215.759 81.2541 215.529 81.2543C215.436 81.2636 215.341 81.2636 215.248 81.2543V80.4413H215.294H215.497C215.615 80.4424 215.731 80.4202 215.84 80.3758C215.948 80.3314 216.047 80.2657 216.13 80.1824C216.364 79.9425 216.557 79.6664 216.703 79.3647L214.25 74.5464H215.22L217.132 78.4871Z" fill="#7F7F80"/>
<path d="M225.437 74.5464V80.349H226.472V82.7512H225.626V81.1667H220.347V82.7512H219.516V80.3536H219.756C219.909 80.367 220.063 80.3395 220.201 80.2736C220.34 80.2079 220.459 80.1063 220.546 79.9793C220.714 79.7168 220.823 79.4202 220.864 79.1107C220.864 79.0092 220.91 78.7367 220.938 78.2884L221.021 76.9902C221.044 76.6807 221.063 76.2188 221.091 75.6044C221.091 75.1425 221.118 74.796 221.118 74.5464H225.437ZM221.691 79.1246C221.668 79.5708 221.507 79.999 221.229 80.349H224.629V75.3595H221.931C221.931 75.5165 221.931 75.7798 221.899 76.1448C221.876 76.6576 221.853 77.0319 221.834 77.2766L221.751 78.3856C221.742 78.6858 221.714 78.9305 221.691 79.1246Z" fill="#7F7F80"/>
<path d="M229.908 78.4871L231.561 74.5464H232.485L230.554 78.9213C230.3 79.563 229.948 80.1614 229.511 80.6955C229.361 80.8704 229.176 81.011 228.967 81.1075C228.758 81.2039 228.531 81.2541 228.3 81.2543C228.208 81.2636 228.116 81.2636 228.023 81.2543V80.4413H228.07H228.273C228.39 80.442 228.506 80.4193 228.615 80.3749C228.723 80.3305 228.822 80.2652 228.906 80.1824C229.138 79.9412 229.331 79.6654 229.478 79.3647L227.012 74.5464H227.986L229.908 78.4871Z" fill="#7F7F80"/>
<path d="M243.354 82.7744H242.522V81.1622H233.719V74.5465H234.541V80.3491H237.603V74.5465H238.425V80.3491H241.497V74.5465H242.319V80.3491H243.354V82.7744Z" fill="#7F7F80"/>
<path d="M248.598 74.5464V75.3595H245.545V77.3967H248.408V78.21H245.545V80.349H248.598V81.162H244.723V74.5464H248.598Z" fill="#7F7F80"/>
<path d="M250.105 74.5465H254.092V75.3596H250.928V81.1622H250.105V74.5465Z" fill="#7F7F80"/>
<path d="M257.82 81.2542C257.374 81.2663 256.93 81.1867 256.515 81.0206C256.1 80.8547 255.724 80.6054 255.409 80.2885C254.792 79.6281 254.449 78.7579 254.449 77.8539C254.449 76.9501 254.792 76.0799 255.409 75.4193C256.061 74.7996 256.926 74.454 257.825 74.454C258.724 74.454 259.589 74.7996 260.241 75.4193C260.853 76.082 261.194 76.9513 261.194 77.8539C261.194 78.7567 260.853 79.626 260.241 80.2885C259.925 80.6065 259.547 80.8564 259.131 81.0224C258.714 81.1885 258.268 81.2674 257.82 81.2542ZM257.82 80.4411C258.163 80.4622 258.506 80.4078 258.825 80.2818C259.144 80.1555 259.432 79.9607 259.668 79.7111C260.123 79.195 260.361 78.5231 260.333 77.8356C260.345 77.4956 260.288 77.1565 260.166 76.8389C260.044 76.5213 259.859 76.2316 259.622 75.9876C259.146 75.5136 258.501 75.2476 257.83 75.2476C257.158 75.2476 256.513 75.5136 256.037 75.9876C255.583 76.4958 255.332 77.1537 255.332 77.8356C255.332 78.5173 255.583 79.1754 256.037 79.6836C256.266 79.929 256.544 80.1233 256.853 80.2538C257.161 80.3845 257.494 80.4483 257.83 80.4411H257.82Z" fill="#7F7F80"/>
</g>
</svg>
