<svg width="360" height="100" viewBox="0 0 360 100" fill="none" xmlns="http://www.w3.org/2000/svg">
<mask id="mask0_2261_21413" style="mask-type:luminance" maskUnits="userSpaceOnUse" x="107" y="30" width="145" height="39">
<path d="M252 30.5483H107V68.652H252V30.5483Z" fill="white"/>
</mask>
<g mask="url(#mask0_2261_21413)">
<path fill-rule="evenodd" clip-rule="evenodd" d="M174.855 68.6524H158.572L148.952 50.8675H148.858V68.6524H135.25V31.1118H148.858V47.6766H148.952L158.197 31.1118H173.776L162.185 48.662L174.855 68.6524Z" fill="#7F7F80"/>
<path d="M118.731 42.374H119.06L128.023 68.6524H147.075V31.1118H135.343V56.6863H135.015L126.427 31.1118H107V68.6524H118.731V42.374Z" fill="#7F7F80"/>
<path fill-rule="evenodd" clip-rule="evenodd" d="M250.593 54.0586C250.593 54.0586 250.593 61.0036 250.593 66.0246C250.593 68.2302 250.733 67.9955 248.669 67.9955C236.139 67.9955 186.023 67.9955 186.023 67.9955L175.84 54.0586H250.593Z" fill="#7F7F80"/>
<path fill-rule="evenodd" clip-rule="evenodd" d="M251.342 41.0599C251.013 41.9515 250.591 42.7023 250.028 43.4062C249.465 44.0631 248.761 44.5793 247.869 45.0016C247.024 45.377 246.086 45.5648 245.054 45.5648C244.115 45.5648 243.223 45.377 242.379 45.0016C241.534 44.6262 240.877 44.157 240.455 43.5469H240.408V50.445H236.795V31.2055H240.173V32.9887H240.22C240.643 32.4256 241.253 31.9563 242.097 31.534C242.942 31.1116 243.833 30.877 244.913 30.877C246.274 30.877 247.494 31.2055 248.573 31.8624C249.652 32.5194 250.45 33.411 251.013 34.4903C251.576 35.6165 251.858 36.8366 251.858 38.2443C251.811 39.2298 251.623 40.1683 251.342 41.0599ZM247.024 35.0065C246.321 34.1618 245.382 33.7395 244.209 33.7395C242.707 33.7395 241.44 34.4434 240.408 35.8042V40.5437C240.783 41.1537 241.299 41.6699 241.956 42.0453C242.613 42.4207 243.364 42.6554 244.209 42.6554C245.382 42.6554 246.274 42.233 246.977 41.3884C247.681 40.5437 248.01 39.4644 248.01 38.2443C248.057 36.9304 247.681 35.8511 247.024 35.0065ZM230.882 43.3592H230.835C230.366 44.0162 229.709 44.5324 228.958 44.9547C228.207 45.377 227.363 45.5648 226.424 45.5648C224.688 45.5648 223.374 45.0486 222.482 44.0631C221.638 43.0777 221.215 41.7168 221.215 39.9806V31.2055H224.829V38.432C224.829 39.8398 225.016 40.9191 225.439 41.5291C225.861 42.1861 226.518 42.4677 227.409 42.4677C228.817 42.4677 229.99 41.7168 230.835 40.1683V31.2055H234.448V45.1893H230.882V43.3592ZM215.631 44.6262C214.458 45.2363 213.097 45.5648 211.642 45.5648C210.188 45.5648 208.827 45.2363 207.654 44.6262C206.481 44.0162 205.542 43.1715 204.885 42.0453C204.228 40.9191 203.9 39.6521 203.9 38.2443C203.9 36.7427 204.228 35.4288 204.885 34.3495C205.542 33.2233 206.481 32.3786 207.654 31.8155C208.827 31.2055 210.141 30.9239 211.689 30.9239C213.989 30.9239 215.866 31.5809 217.274 32.9417C218.728 34.2557 219.432 36.0388 219.432 38.2443C219.432 39.6521 219.104 40.9191 218.447 42.0453C217.743 43.1246 216.804 43.9693 215.631 44.6262ZM214.552 34.9595C213.848 34.1149 212.862 33.6925 211.642 33.6925C210.422 33.6925 209.437 34.1149 208.733 34.9595C207.982 35.8042 207.654 36.8835 207.654 38.2443C207.654 39.6052 207.982 40.6845 208.686 41.5291C209.39 42.3738 210.375 42.7961 211.642 42.7961C212.909 42.7961 213.848 42.3738 214.599 41.4822C215.303 40.5906 215.678 39.5113 215.678 38.2443C215.631 36.8835 215.256 35.8042 214.552 34.9595ZM201.835 34.021C200.239 34.021 199.019 34.7249 198.128 36.1796V45.2363H194.515V31.2055H197.799V33.3641H197.846C198.738 31.7217 200.099 30.877 201.835 30.877C202.304 30.877 202.867 30.9239 203.43 31.0647V34.3026C202.914 34.1149 202.351 34.021 201.835 34.021ZM184.05 50.7266C182.455 50.7266 180.812 50.445 179.123 49.835V46.7379C180.015 47.1602 180.812 47.4887 181.563 47.6764C182.314 47.8641 183.112 47.958 184.003 47.958C185.458 47.958 186.584 47.5826 187.382 46.7848C188.227 45.9871 188.602 44.9078 188.602 43.4531V43.0777H188.555C187.992 43.7346 187.288 44.2978 186.49 44.6262C185.693 45.0016 184.801 45.1424 183.909 45.1424C182.642 45.1424 181.516 44.8139 180.484 44.2039C179.498 43.5939 178.748 42.7492 178.231 41.6699C177.715 40.6376 177.434 39.4644 177.434 38.1974C177.434 37.212 177.574 36.2735 177.903 35.3819C178.231 34.4903 178.654 33.6925 179.217 33.0356C179.78 32.3786 180.484 31.8155 181.328 31.4401C182.173 31.0647 183.065 30.8301 184.05 30.8301C185.082 30.8301 186.021 31.0178 186.819 31.3932C187.616 31.7686 188.273 32.3317 188.743 33.0356H188.79V31.1586H192.074V43.4531C192.168 48.3334 189.447 50.7266 184.05 50.7266ZM188.602 35.945C188.32 35.3819 187.898 34.8657 187.288 34.3964C186.678 33.9741 185.974 33.7395 185.129 33.7395C184.332 33.7395 183.675 33.9741 183.065 34.3964C182.455 34.8188 182.032 35.3819 181.704 36.0388C181.422 36.6958 181.282 37.3997 181.282 38.1505C181.282 39.3236 181.657 40.356 182.408 41.1537C183.159 41.9515 184.05 42.3738 185.082 42.3738C185.739 42.3738 186.443 42.1861 187.147 41.7638C187.851 41.3414 188.32 40.8722 188.649 40.3091V35.945H188.602Z" fill="#7F7F80"/>
</g>
</svg>
