<?xml version="1.0" encoding="utf-8"?><svg width="38" height="21" fill="none" xmlns="http://www.w3.org/2000/svg" viewBox="0 0 38 21"><path d="M17.335 7.879c.873 0 1.631.165 2.274.495A3.38 3.38 0 0121.1 9.75c.352.599.527 1.3.527 2.104v.155c0 .804-.175 1.51-.527 2.12a3.588 3.588 0 01-1.491 1.392c-.643.32-1.4.479-2.274.479-1.065 0-1.943-.284-2.636-.85l-.06.664h-2.034V5.048h2.184v3.62c.703-.526 1.551-.79 2.546-.79zm2.033 3.975c0-.608-.206-1.083-.617-1.423-.412-.34-.99-.51-1.733-.51-.472 0-.908.077-1.31.232-.392.154-.698.366-.919.634v2.29c.231.268.542.484.934.649.392.155.823.232 1.295.232.743 0 1.32-.17 1.732-.51.412-.34.618-.82.618-1.439v-.155zM11.3 8.064v1.98H9.613c-.944 0-1.607.243-1.988.727v5.043h-2.17v-7.75H7.49l.06.712c.633-.474 1.416-.712 2.35-.712h1.4zM3.274 5.667v10.147H1V5.667h2.274zM31.677 16c-1.416 0-2.52-.227-3.314-.68-.783-.465-1.174-1.12-1.174-1.965v-.078h2.093v.078c0 .288.191.5.573.634.381.124.999.186 1.852.186 1.406 0 2.109-.207 2.109-.62v-.076c0-.155-.09-.274-.271-.356-.18-.083-.507-.145-.98-.186l-1.942-.201c-1.115-.113-1.928-.35-2.44-.712-.512-.36-.768-.871-.768-1.531v-.155c0-.773.371-1.376 1.114-1.81.753-.433 1.798-.65 3.133-.65 1.386 0 2.45.228 3.193.681.743.454 1.115 1.109 1.115 1.965v.093h-2.094v-.093c0-.289-.18-.495-.542-.619-.351-.134-.929-.2-1.732-.2-.653 0-1.155.045-1.506.138-.352.093-.527.227-.527.402v.093c0 .155.08.274.24.356.171.083.447.144.829.186l1.973.2c1.185.125 2.044.367 2.576.728.542.36.813.882.813 1.562v.155c0 .784-.382 1.392-1.145 1.825-.763.433-1.822.65-3.178.65z" fill="#fff"/><path d="M23.051 5h2.106v2.163H23.05V5z" fill="#0BF"/><path d="M25.157 8.028v7.786H23.05V8.028h2.106z" fill="#fff"/></svg>