<?xml version="1.0" encoding="utf-8"?><svg width="177" height="43" xmlns="http://www.w3.org/2000/svg" viewBox="0 0 177 43"><path d="M48.972 15.94c-.383.384-.583.781-.6 1.192v9.553c0 .4.2.8.6 1.2h-2.39c.4-.4.599-.8.599-1.2v-9.553h-2.39v9.553c0 .4.2.8.6 1.2H43c.4-.4.6-.8.6-1.2v-9.553c0-.394-.2-.792-.6-1.191h5.972zM55.177 24.303h-1.79c.4.4.6.797.6 1.19v1.2h-2.392v-3.665c.217-.05.509-.135.875-.258.467-.16.75-.255.85-.283.638-.189 1.058-.18 1.258.025 0-.35-.123-.639-.367-.866a1.157 1.157 0 00-.825-.333c-.56 0-1.307.175-2.24.524-.361.14-.622.217-.783.234-.239.033-.425-.02-.558-.158 0 .46.2.805.6 1.032v3.748c0 .395-.2.792-.6 1.191h5.972c-.4-.4-.6-.796-.6-1.191v-2.39zm-4.772-7.163c0-.4-.2-.8-.6-1.2h5.972c-.4.4-.6.8-.6 1.2v2.382h-1.79c.4-.394.6-.791.6-1.191V17.14h-2.392v4.23c-.682.245-1.08.378-1.19.401V17.14zM62.97 19.522h-1.799c.4-.395.6-.792.6-1.191V17.14H60.58v9.553c0 .395.197.792.591 1.191H58.79c.394-.4.591-.796.591-1.191V17.14h-1.19v1.191c0 .4.2.796.6 1.19h-1.792V17.14c0-.4-.2-.8-.6-1.2h7.164c-.4.4-.6.8-.6 1.2l.008 2.382zM69.56 22.512a.804.804 0 01-.008.117 1.126 1.126 0 01-.4.783 1.171 1.171 0 01-.783.291c-.25 0-1.047-.18-2.39-.541v3.54c.016.405.216.8.6 1.182h-2.391c.4-.4.6-.796.6-1.191v-3.748c-.284-.005-.484.05-.6.167 0-.35.124-.641.374-.875.234-.216.506-.324.817-.324.327 0 1.324.216 2.99.649V17.14h-2.39v4.514a4.928 4.928 0 00-.6-.042 1.15 1.15 0 00-.592.167v-4.64c0-.399-.2-.799-.6-1.199h4.182c.328 0 .608.117.841.35.233.233.35.517.35.85v5.372zM74.37 17.14h-2.391v9.553h2.39V17.14zm1.79-1.2c-.4.4-.6.8-.6 1.2v9.553c0 .395.2.792.6 1.191h-5.972c.4-.4.6-.796.6-1.191V17.14c0-.4-.2-.8-.6-1.2h5.971zM81.173 21.913c-.378 0-.794.072-1.25.216-.594.19-.974.297-1.14.325v4.24h2.39v-4.781zm1.191-1.791c0 .355-.133.652-.4.891.267.239.4.539.4.9v4.78c0 .328-.117.609-.35.842-.233.233-.513.35-.84.35h-4.182c.4-.4.6-.797.6-1.191v-4.348c-.4-.228-.6-.572-.6-1.033.133.139.35.192.65.158.216-.017.547-.095.99-.233 1.162-.345 2.008-.516 2.541-.516v-3.59h-2.39v3.764c-.567.172-.964.267-1.191.284V17.13c0-.393-.2-.79-.6-1.19h4.181c.328 0 .608.116.841.35.234.232.35.513.35.84v2.99zM88.568 26.694c0 .394.2.791.6 1.19h-5.973c.384-.382.584-.777.6-1.182V17.132c-.016-.41-.216-.808-.6-1.191h5.973c-.4.4-.6.797-.6 1.19l.008 2.391h-1.799c.4-.394.6-.791.6-1.191v-1.2h-2.39v9.563h2.39v-1.2c0-.4-.2-.797-.6-1.19h1.79v2.39zM90.6 21.18c.233-.017.63-.111 1.19-.284V17.14c0-.4.2-.8.6-1.2H90c.4.4.6.8.6 1.2v4.04zm4.772 5.514c0 .394.2.79.6 1.19h-.6c-.328 0-.608-.116-.841-.349a1.148 1.148 0 01-.35-.841v-4.781c-.378 0-.794.072-1.25.216-.594.19-.974.3-1.14.333v4.24c.016.405.216.8.6 1.182H90c.4-.4.6-.796.6-1.19v-4.348c-.4-.228-.6-.572-.6-1.033.216.216.763.194 1.64-.067 1.16-.35 2.008-.524 2.541-.524V17.14c0-.333.117-.617.35-.85.233-.233.513-.35.841-.35h.6c-.383.383-.583.778-.6 1.183v2.999c0 .36-.136.66-.408.9.272.238.408.535.408.89v4.782zM104.209 17.14c0-.4-.2-.8-.6-1.2H106c-.4.4-.6.8-.6 1.2v5.472l2.39-4.381V17.14c0-.4-.2-.8-.599-1.2h2.39c-.399.4-.6.8-.6 1.2v9.554c0 .394.201.791.6 1.19h-2.39c.399-.399.599-.796.599-1.19v-6.072l-2.39 4.38v1.692c0 .394.2.791.6 1.19h-2.391c.4-.399.6-.796.6-1.19V17.14zM97.405 17.14c0-.4-.2-.8-.6-1.2h2.39c-.4.4-.6.8-.6 1.2v5.472l2.391-4.381V17.14c0-.4-.2-.8-.6-1.2h2.391c-.4.4-.6.8-.6 1.2v9.554c0 .394.2.791.6 1.19h-2.391c.4-.399.6-.796.6-1.19v-6.072l-2.39 4.38v1.692c0 .394.2.791.6 1.19h-2.391c.4-.399.6-.796.6-1.19V17.14zM120.021 26.694c0 .394.2.791.599 1.19h-5.972c.384-.382.584-.777.6-1.182V17.132c-.016-.41-.216-.808-.6-1.191h5.972c-.399.4-.599.797-.599 1.19l.008 2.391h-1.799c.4-.394.6-.791.6-1.191v-1.2h-2.391v9.563h2.391v-1.2c0-.4-.2-.797-.6-1.19h1.791v2.39zM127.814 19.522h-1.799c.4-.395.599-.792.599-1.191V17.14h-1.191v9.553c0 .395.197.792.592 1.191h-2.383c.395-.4.592-.796.592-1.191V17.14h-1.191v1.191c0 .4.2.796.599 1.19h-1.79V17.14c0-.4-.2-.8-.6-1.2h7.163c-.4.4-.599.8-.599 1.2l.008 2.382zM134.404 22.512a.764.764 0 01-.009.117 1.127 1.127 0 01-.399.783 1.172 1.172 0 01-.783.291c-.25 0-1.047-.18-2.391-.541v3.54c.017.405.216.8.6 1.182h-2.391c.4-.4.6-.796.6-1.191v-3.748c-.283-.005-.483.05-.6.167 0-.35.125-.641.375-.875.233-.216.506-.324.816-.324.328 0 1.325.216 2.991.649V17.14h-2.391v4.514a4.93 4.93 0 00-.6-.042 1.15 1.15 0 00-.591.167v-4.64c0-.399-.2-.799-.6-1.199h4.182c.327 0 .607.117.841.35.233.233.35.517.35.85v5.372zM139.213 17.14h-2.39v9.553h2.39V17.14zm1.791-1.2c-.401.4-.6.8-.6 1.2v9.553c0 .395.199.792.6 1.191h-5.973c.4-.4.6-.796.6-1.191V17.14c0-.4-.2-.8-.6-1.2h5.973zM142.435 17.14c0-.4-.199-.8-.599-1.2h2.39c-.4.4-.6.8-.6 1.2v5.472l2.391-4.381V17.14c0-.4-.2-.8-.6-1.2h2.391c-.4.4-.6.8-.6 1.2v9.554c0 .394.2.791.6 1.19h-2.391c.4-.399.6-.796.6-1.19v-6.072l-2.391 4.38v1.692c0 .394.2.791.6 1.19h-2.39c.4-.399.599-.796.599-1.19V17.14zM155.001 19.522h-1.799c.4-.395.6-.792.6-1.191V17.14h-1.191v9.553c0 .395.197.792.591 1.191h-2.382c.394-.4.591-.796.591-1.191V17.14h-1.191v1.191c0 .4.2.796.6 1.19h-1.791V17.14c0-.4-.2-.8-.599-1.2h7.163c-.4.4-.6.8-.6 1.2l.008 2.382zM161.591 24.303H159.8c.4.4.6.797.6 1.19v1.2h-2.39v-3.665c.216-.05.508-.135.874-.258.466-.16.75-.255.85-.283.638-.189 1.058-.18 1.257.025 0-.35-.122-.639-.366-.866a1.157 1.157 0 00-.825-.333c-.561 0-1.308.175-2.24.524-.361.14-.622.217-.783.234-.239.033-.425-.02-.558-.158 0 .46.199.805.6 1.032v3.748c0 .395-.2.792-.6 1.191h5.972c-.4-.4-.6-.796-.6-1.191v-2.39zm-4.772-7.163c0-.4-.2-.8-.6-1.2h5.972c-.4.4-.6.8-.6 1.2v2.382H159.8c.4-.394.6-.791.6-1.191V17.14h-2.39v4.23c-.683.245-1.08.378-1.191.401V17.14zM166.994 27.884c.338-.4.477-.799.416-1.199l-1.316-8.754-1.308 8.754c-.061.4.078.8.417 1.2h-2.391c.456-.4.714-.8.775-1.2l1.433-9.553c.055-.406-.084-.803-.417-1.191h2.982c-.333.399-.472.796-.416 1.19l1.432 9.563c.072.405.333.802.783 1.19h-2.39zM175.388 26.685c0 .333-.117.617-.35.85-.233.233-.514.35-.841.35h-4.181c.399-.4.6-.8.6-1.2v-4.64c.188.112.385.167.591.167.177 0 .377-.013.599-.041v4.514h2.391v-5.422c-1.666.433-2.663.65-2.99.65-.312 0-.583-.109-.817-.326a1.148 1.148 0 01-.374-.874c.116.116.316.172.6.167v-3.748c0-.395-.201-.792-.6-1.191h2.39c-.383.382-.583.777-.6 1.182v3.54c1.344-.36 2.141-.541 2.391-.541.294 0 .555.097.783.292.239.204.372.466.4.783a.901.901 0 01.008.116v5.372zM104.508 14.064v-.056c.13.112.286.146.452.144.206-.002.407-.037.602-.099.323-.1.643-.209.963-.319.32-.11.648-.18.983-.215l.17-.019h.186l.113.017c.405.06.779.396.875.793.019.077.027.157.04.236l.001.056a.658.658 0 00-.454-.145 2.072 2.072 0 00-.601.1c-.322.1-.643.208-.962.318-.32.11-.648.18-.984.216l-.17.019h-.186a7.883 7.883 0 00-.113-.018 1.103 1.103 0 01-.875-.792c-.019-.078-.027-.157-.04-.236z"/><path d="M24.175 5.5c-.062.076-.122.155-.188.227-.585.641-1.067 1.346-1.276 2.205-.072.298-.107.61-.123.917-.02.4-.005.8-.005 1.21h-3.171V8.743h-6.37v18.606H9.857v-.192c0-6.06-.005-12.12.005-18.18A4.106 4.106 0 009.075 6.5c-.222-.308-.48-.589-.723-.883-.031-.037-.058-.079-.086-.118h15.91z" fill="#DDB44C"/><path d="M32.478 11.355c-.76.764-1.373 1.615-1.56 2.715-.016.09-.03.181-.03.272.001.688.006 1.376.009 2.065v.424l.007 2.707v.17h-4.796l.196-.21c.56-.605 1.042-1.262 1.256-2.076a4.45 4.45 0 00.134-.982c.02-.601.002-1.203 0-1.805-.001-.022-.005-.044-.008-.079H14.305V11.33H24.66l7.682.003c.045 0 .09-.003.135-.005v.027zM32.48 31.877c-.036-.004-.071-.011-.107-.011-1.438 0-2.877-.002-4.315 0-1.362.001-2.723.006-4.085.009h-.114v-3.22h3.83c.005-.052.012-.09.013-.13l-.002-1.709c0-.763-.244-1.453-.667-2.072-.245-.358-.54-.681-.813-1.02-.03-.038-.067-.071-.115-.123h4.777v.156c0 1.582.006 3.165-.003 4.747a3.86 3.86 0 00.55 2.013c.29.493.646.932 1.05 1.333v.027zM18.106 28.646v3.216H0c.132-.147.247-.272.358-.4.55-.638.975-1.342 1.159-2.179.107-.487.068-.98.072-1.471 0-.054-.006-.109-.006-.164 0-2.886 0-5.773.002-8.66 0-1.363-.013-2.726.012-4.09.018-1.01-.295-1.897-.878-2.697-.19-.26-.41-.496-.617-.743l-.1-.117h8.574v3.21H4.78v14.095h13.325z" fill="#DDB44C"/><path d="M22.577 15.854v.198c0 6.06.006 12.12-.006 18.18a4.234 4.234 0 00.859 2.604c.223.302.474.583.717.88h-6.342l.21-.227c.57-.627 1.058-1.308 1.262-2.149.078-.324.12-.666.12-.999.008-6.096.006-12.192.006-18.288v-.2h3.174zM9.852 33.17h3.174v.164c.003.42.002.838.011 1.257.017.769.296 1.45.724 2.068.255.368.55.706.826 1.057h-6.33l.145-.158c.553-.591 1.02-1.238 1.276-2.021a3.55 3.55 0 00.174-1.1V33.17z" fill="#DDB44C"/></svg>