<?xml version="1.0" encoding="utf-8"?><svg width="21" height="20" fill="none" xmlns="http://www.w3.org/2000/svg" viewBox="0 0 21 20"><g clip-path="url(#mclip0_2318_50005)"><path d="M3.764 8.58a.683.683 0 01-.975 0 .704.704 0 010-.988L8.82 1.5C10.18.444 11.548-.063 12.91.006c1.716.088 3.052.742 4.186 1.815C18.252 2.915 19 4.476 19 6.368c0 1.452-.422 2.73-1.313 3.864l-8.503 8.76c-.86.705-1.816 1.046-2.84 1.005-1.3-.054-2.267-.474-2.986-1.185C2.516 17.982 2 16.96 2 15.587c0-1.092.377-2.1 1.155-3.046l7.484-7.64c.6-.64 1.187-1.02 1.787-1.113a2.49 2.49 0 012.2.755c.532.563.76 1.265.68 2.064-.055.545-.278 1.047-.688 1.528l-6.88 7.048a.683.683 0 01-.974.006.704.704 0 01-.006-.987l6.847-7.012c.2-.235.305-.472.33-.724.04-.4-.056-.695-.305-.958a1.12 1.12 0 00-1-.34c-.243.037-.583.258-1.002.704L4.175 13.48c-.537.655-.797 1.35-.797 2.11 0 .953.345 1.636.942 2.225.475.47 1.12.75 2.08.79.68.027 1.31-.198 1.858-.642l8.397-8.65c.645-.827.967-1.8.967-2.943 0-1.482-.577-2.684-1.468-3.528-.91-.862-1.95-1.37-3.313-1.44-1.008-.052-2.065.34-3.117 1.146L3.764 8.58z" fill="#282828"/></g><defs><clipPath id="mclip0_2318_50005"><path fill="#fff" transform="translate(.5)" d="M0 0h20v20H0z"/></clipPath></defs></svg>