<?xml version="1.0" encoding="utf-8"?><svg width="56" height="56" fill="none" xmlns="http://www.w3.org/2000/svg" viewBox="0 0 56 56"><path d="M26.163 34.118l11.184-11.152-2.135-2.14-9.049 9.022-4.462-4.449-2.134 2.141 6.596 6.578z" fill="#DDB44C"/><path fill-rule="evenodd" clip-rule="evenodd" d="M35.717 11.278l-7.26-3.111-7.26 3.111-8.361-1.194V27.75c0 6.898 3.71 13.262 9.712 16.661l6.042 3.422 5.904-3.404a19.148 19.148 0 009.584-16.588V10.084l-8.36 1.194zm-14.109 3.113l6.849-2.935 6.849 2.935 5.748-.821v14.27c0 5.765-3.077 11.09-8.07 13.97l-4.408 2.541-4.538-2.57a16.125 16.125 0 01-8.179-14.031V13.57l5.75.821z" fill="#DDB44C"/></svg>