<?xml version="1.0" encoding="utf-8"?><svg width="56" height="56" fill="none" xmlns="http://www.w3.org/2000/svg" viewBox="0 0 56 56"><path d="M47.996 23.392H9.003m8.627-12.035l10.352 33.599m11.387-33.599L29.145 44.934m1.727-1.004a3.134 3.134 0 01-1.068.79 3.171 3.171 0 01-2.608 0 3.138 3.138 0 01-1.068-.79L9.766 25.282a3.072 3.072 0 01-.138-3.888l6.939-9.155a3.13 3.13 0 011.107-.912A3.17 3.17 0 0119.076 11h18.822c.487 0 .968.112 1.403.327.436.215.815.527 1.107.912l6.964 9.155a3.072 3.072 0 01-.138 3.888L30.872 43.93z" stroke="#DDB44C" stroke-width="2.5" stroke-linecap="round" stroke-linejoin="round"/></svg>