<?xml version="1.0" encoding="utf-8"?><svg width="100" height="100" fill="none" xmlns="http://www.w3.org/2000/svg" viewBox="0 0 100 100"><path d="M45.33 18.353c-12.302 7.877-18.453 17.364-18.453 28.46 0 3.451.6 5.177 1.803 5.177l1.237-.334c.973-.375 1.76-.562 2.363-.562 3.525 0 6.467 1.28 8.828 3.843 2.36 2.563 3.542 5.725 3.544 9.488-.002 3.617-1.279 6.686-3.829 9.21-2.55 2.52-5.625 3.78-9.225 3.78-5.025 0-9.17-2.065-12.437-6.196-3.258-4.125-4.888-9.31-4.888-15.553-.002-7.063 1.384-13.524 4.157-19.385 2.779-5.858 7.016-11.155 12.712-15.89 5.7-4.732 9.338-7.098 10.913-7.1 1.05 0 1.912.506 2.587 1.518.675 1.01 1.013 1.89 1.013 2.64l-.335.9.01.004zm40.5 0c-12.302 7.875-18.452 17.362-18.45 28.462 0 3.453.6 5.179 1.803 5.179l1.237-.335c.973-.375 1.76-.562 2.363-.562 3.45 0 6.374 1.281 8.772 3.843 2.402 2.559 3.602 5.721 3.6 9.488-.002 3.617-1.278 6.687-3.828 9.21-2.55 2.52-5.625 3.78-9.225 3.78-5.025 0-9.171-2.065-12.438-6.196-3.258-4.125-4.887-9.31-4.887-15.553-.005-7.138 1.402-13.654 4.218-19.55 2.813-5.898 7.05-11.176 12.71-15.835 5.67-4.66 9.29-6.99 10.86-6.99 1.051 0 1.916.506 2.593 1.518.673 1.013 1.01 1.894 1.01 2.644l-.338.897z" fill="#CFCFCF"/></svg>