<?xml version="1.0" encoding="utf-8"?><svg width="16" height="16" fill="none" xmlns="http://www.w3.org/2000/svg" viewBox="0 0 16 16"><path d="M5.964 10.57l1.222 1.188-1.056 2.775a.795.795 0 01-.74.499.878.878 0 01-.272-.044.761.761 0 01-.468-.984l1.314-3.435z" fill="#7F7F80"/><path d="M3.683 7.53l.725-1.35c.196-.352.483-.646.83-.851 1.676-.97 1.887-.954 2.098-.94l1.132.074c.347.014.589.102 1.751 1.761a.296.296 0 00.197.118l1.388.205a.668.668 0 01.574.763.682.682 0 01-.785.558l-1.389-.205a1.676 1.676 0 01-1.117-.676c-.06-.088-.105-.161-.166-.234l-.89 2.745L9.268 10.7c.181.176.332.411.423.646l.95 2.701c.152.396-.075.837-.482.969a.788.788 0 01-.257.044.814.814 0 01-.754-.514l-.951-2.7c-.015-.03-.03-.045-.046-.074L5.948 9.615A1.215 1.215 0 015.6 8.47l.483-2.084c-.045.029-.09.058-.15.088a.826.826 0 00-.318.323l-.724 1.35a.696.696 0 01-.92.279.665.665 0 01-.288-.895zM9.65 2.737c.09-.814-.514-1.546-1.351-1.635-.837-.088-1.59.5-1.68 1.314-.092.814.513 1.545 1.35 1.634.837.089 1.589-.5 1.68-1.313z" fill="#7F7F80"/></svg>