<svg width="16" height="16" viewBox="0 0 16 16" xmlns="http://www.w3.org/2000/svg">
<path d="M2.0026 6.66667H14.0026V13.336C14.0026 13.7027 13.7059 14 13.3406 14H2.6646C2.57753 13.9999 2.49132 13.9827 2.41091 13.9492C2.3305 13.9158 2.25747 13.8669 2.19599 13.8052C2.13451 13.7435 2.08578 13.6704 2.0526 13.5898C2.01942 13.5093 2.00243 13.4231 2.0026 13.336V6.66667ZM6.0026 8V9.33333H10.0026V8H6.0026ZM1.33594 2.66667C1.33594 2.29867 1.63927 2 1.99727 2H14.0079C14.3733 2 14.6693 2.296 14.6693 2.66667V5.33333H1.33594V2.66667Z"/>
</svg>
