<svg width="38" height="21" viewBox="0 0 38 21" fill="none" xmlns="http://www.w3.org/2000/svg">
<path d="M17.3346 7.87869C18.2082 7.87869 18.9663 8.0437 19.609 8.37371C20.2617 8.6934 20.7587 9.15232 21.1001 9.75046C21.4516 10.3486 21.6273 11.0499 21.6273 11.8543V12.009C21.6273 12.8134 21.4516 13.5198 21.1001 14.1282C20.7487 14.7264 20.2516 15.1904 19.609 15.5205C18.9663 15.8402 18.2082 16 17.3346 16C16.2702 16 15.3916 15.7164 14.6987 15.1492L14.6385 15.8144H12.6051V5.04784H14.7891V8.66762C15.492 8.14167 16.3405 7.87869 17.3346 7.87869ZM19.368 11.8543C19.368 11.2458 19.1622 10.7714 18.7505 10.4311C18.3388 10.0908 17.7614 9.92062 17.0183 9.92062C16.5464 9.92062 16.1096 9.99797 15.7079 10.1527C15.3163 10.3073 15.01 10.5188 14.7891 10.7869V13.0763C15.0201 13.3445 15.3314 13.561 15.723 13.726C16.1146 13.8807 16.5464 13.9581 17.0183 13.9581C17.7614 13.9581 18.3388 13.7879 18.7505 13.4476C19.1622 13.1073 19.368 12.6277 19.368 12.009V11.8543Z" fill="white"/>
<path d="M11.2999 8.06432V10.0444H9.61293C8.66904 10.0444 8.00631 10.2867 7.62474 10.7714V15.8144H5.45579V8.06432H7.48918L7.54943 8.7759C8.18203 8.30152 8.96526 8.06432 9.89911 8.06432H11.2999Z" fill="white"/>
<path d="M3.27438 5.6666V15.8144H1V5.6666H3.27438Z" fill="white"/>
<path d="M31.6772 16C30.2613 16 29.1568 15.7731 28.3635 15.3194C27.5803 14.8553 27.1887 14.2004 27.1887 13.3548V13.2774H29.2823V13.3548C29.2823 13.6435 29.4731 13.8549 29.8547 13.989C30.2362 14.1128 30.8538 14.1746 31.7073 14.1746C33.1131 14.1746 33.816 13.9684 33.816 13.5559V13.4785C33.816 13.3238 33.7256 13.2052 33.5449 13.1227C33.3641 13.0402 33.0378 12.9784 32.5658 12.9371L30.6228 12.736C29.5082 12.6226 28.6949 12.3854 28.1828 12.0244C27.6707 11.6635 27.4146 11.153 27.4146 10.493V10.3383C27.4146 9.56483 27.7861 8.96153 28.5292 8.5284C29.2823 8.09526 30.3266 7.87869 31.6621 7.87869C33.0478 7.87869 34.1122 8.10557 34.8553 8.55934C35.5983 9.0131 35.9699 9.66796 35.9699 10.5239V10.6167H33.8762V10.5239C33.8762 10.2352 33.6955 10.0289 33.334 9.90515C32.9826 9.77109 32.4052 9.70405 31.6019 9.70405C30.9492 9.70405 30.4471 9.75046 30.0957 9.84328C29.7442 9.93609 29.5685 10.0702 29.5685 10.2455V10.3383C29.5685 10.493 29.6488 10.6116 29.8095 10.6941C29.9802 10.7766 30.2563 10.8385 30.6379 10.8797L32.611 11.0808C33.7959 11.2046 34.6545 11.4469 35.1866 11.8079C35.7289 12.1688 36 12.6896 36 13.3702V13.5249C36 14.3087 35.6184 14.9172 34.8553 15.3503C34.0921 15.7834 33.0328 16 31.6772 16Z" fill="white"/>
<path d="M23.051 5H25.1569V7.16287H23.051V5Z" fill="#00BBFF"/>
<path d="M25.1569 8.02802V15.8144H23.051V8.02802H25.1569Z" fill="white"/>
</svg>
