<svg width="20" height="20" viewBox="0 0 20 20" xmlns="http://www.w3.org/2000/svg">
<path d="M8.88 2V4.10656C6.47104 4.5648 4.5648 6.47104 4.10656 8.88H2V11.12H4.10656C4.5648 13.529 6.47104 15.4352 8.88 15.8934V18H11.12V15.8934C13.529 15.4352 15.4352 13.529 15.8934 11.12H18V8.88H15.8934C15.4352 6.47104 13.529 4.5648 11.12 4.10656V2H8.88ZM10 5.6C10.5783 5.59842 11.1511 5.71114 11.6857 5.9317C12.2202 6.15226 12.7059 6.47631 13.1148 6.8852C13.5237 7.29409 13.8477 7.77977 14.0683 8.31432C14.2889 8.84887 14.4016 9.42174 14.4 10C14.4016 10.5783 14.2889 11.1511 14.0683 11.6857C13.8477 12.2202 13.5237 12.7059 13.1148 13.1148C12.7059 13.5237 12.2202 13.8477 11.6857 14.0683C11.1511 14.2889 10.5783 14.4016 10 14.4C9.42174 14.4016 8.84887 14.2889 8.31432 14.0683C7.77977 13.8477 7.29409 13.5237 6.8852 13.1148C6.47631 12.7059 6.15226 12.2202 5.9317 11.6857C5.71114 11.1511 5.59842 10.5783 5.6 10C5.59842 9.42174 5.71114 8.84887 5.9317 8.31432C6.15226 7.77977 6.47631 7.29409 6.8852 6.8852C7.29409 6.47631 7.77977 6.15226 8.31432 5.9317C8.84887 5.71114 9.42174 5.59842 10 5.6Z"/>
</svg>
