<svg width="177" height="43" viewBox="0 0 177 43" xmlns="http://www.w3.org/2000/svg">
<path d="M48.9719 15.9408C48.5887 16.3239 48.3891 16.7211 48.3725 17.1317V26.6853C48.3725 27.085 48.5721 27.4853 48.9719 27.8845H46.5817C46.9814 27.4853 47.181 27.085 47.181 26.6853V17.1317H44.7908V26.6853C44.7908 27.085 44.9905 27.4853 45.3902 27.8845H43C43.3998 27.4853 43.5994 27.085 43.5994 26.6853V17.1317C43.5994 16.7377 43.3998 16.3405 43 15.9408H48.9719Z"/>
<path d="M55.1772 24.3028H53.3864C53.7861 24.7026 53.9863 25.0998 53.9863 25.4938V26.693H51.5955V23.0284C51.8123 22.9786 52.1036 22.8926 52.4702 22.7702C52.9368 22.6095 53.2199 22.5151 53.32 22.4871C53.9583 22.2984 54.3777 22.3067 54.5778 22.512C54.5778 22.1625 54.4555 21.8732 54.2113 21.6461C53.978 21.4237 53.7026 21.3128 53.3864 21.3128C52.8254 21.3128 52.0788 21.4875 51.146 21.8375C50.7846 21.9764 50.5238 22.0542 50.3631 22.0708C50.1241 22.104 49.9379 22.0511 49.8047 21.9126C49.8047 22.3736 50.0048 22.7178 50.4046 22.9455V26.693C50.4046 27.0876 50.2044 27.4848 49.8047 27.8845H55.7766C55.3768 27.4848 55.1772 27.0876 55.1772 26.693V24.3028ZM50.4046 17.1395C50.4046 16.7403 50.2044 16.34 49.8047 15.9402H55.7766C55.3768 16.34 55.1772 16.7403 55.1772 17.1395V19.5219H53.3864C53.7861 19.1279 53.9863 18.7307 53.9863 18.331V17.1395H51.5955V21.3708C50.9127 21.6155 50.5155 21.7483 50.4046 21.7711V17.1395Z"/>
<path d="M62.9702 19.5219H61.1711C61.5708 19.1273 61.771 18.7302 61.771 18.331V17.1395H60.58V26.693C60.58 27.0876 60.777 27.4848 61.1711 27.8845H58.7892C59.1832 27.4848 59.3802 27.0876 59.3802 26.693V17.1395H58.1893V18.331C58.1893 18.7302 58.3894 19.1273 58.7892 19.5219H56.9983V17.1395C56.9983 16.7403 56.7982 16.34 56.3984 15.9402H63.5618C63.162 16.34 62.9619 16.7403 62.9619 17.1395L62.9702 19.5219Z"/>
<path d="M69.56 22.512C69.56 22.5509 69.5574 22.5898 69.5517 22.6287C69.5237 22.9455 69.3905 23.2063 69.152 23.4116C68.9244 23.606 68.663 23.703 68.3691 23.703C68.1192 23.703 67.3222 23.5225 65.9783 23.1617V26.7019C65.9949 27.1068 66.1951 27.5014 66.5782 27.8845H64.1875C64.5878 27.4848 64.7874 27.0876 64.7874 26.693V22.9455C64.5043 22.9398 64.3042 22.9952 64.1875 23.1119C64.1875 22.7619 64.3125 22.4705 64.5624 22.2372C64.7957 22.0205 65.0679 21.9126 65.379 21.9126C65.7061 21.9126 66.7032 22.1288 68.3691 22.5618V17.1395H65.9783V21.6539C65.7564 21.6264 65.5563 21.6124 65.379 21.6124C65.1731 21.6124 64.9761 21.6679 64.7874 21.7789V17.1395C64.7874 16.7403 64.5878 16.34 64.1875 15.9402H68.3691C68.6967 15.9402 68.9772 16.0569 69.21 16.2902C69.4434 16.5235 69.56 16.8066 69.56 17.1395V22.512Z"/>
<path d="M74.3691 17.1395H71.9789V26.693H74.3691V17.1395ZM76.1594 15.9402C75.7596 16.34 75.56 16.7403 75.56 17.1395V26.693C75.56 27.0876 75.7596 27.4848 76.1594 27.8845H70.1875C70.5873 27.4848 70.7874 27.0876 70.7874 26.693V17.1395C70.7874 16.7403 70.5873 16.34 70.1875 15.9402H76.1594Z"/>
<path d="M81.1732 21.9126C80.7953 21.9126 80.3789 21.9847 79.9237 22.1294C79.3295 22.3181 78.9495 22.4265 78.783 22.4539V26.6936H81.1732V21.9126ZM82.3642 20.1218C82.3642 20.4775 82.2309 20.774 81.9644 21.0131C82.2309 21.2516 82.3642 21.5518 82.3642 21.9126V26.6936C82.3642 27.0212 82.2475 27.3017 82.0142 27.5351C81.7814 27.7684 81.5009 27.8845 81.1732 27.8845H76.9922C77.3919 27.4848 77.5916 27.0876 77.5916 26.6936V22.3456C77.1918 22.118 76.9922 21.7737 76.9922 21.3133C77.1254 21.4517 77.3422 21.5046 77.6418 21.4714C77.8581 21.4543 78.1888 21.3765 78.6327 21.2381C79.7936 20.8933 80.6402 20.7217 81.1732 20.7217V17.1312H78.783V20.8964C78.2163 21.0685 77.8192 21.1629 77.5916 21.1795V17.1312C77.5916 16.7377 77.3919 16.3405 76.9922 15.9408H81.1732C81.5009 15.9408 81.7814 16.0569 82.0142 16.2902C82.2475 16.5235 82.3642 16.804 82.3642 17.1312V20.1218Z"/>
<path d="M88.5678 26.6936C88.5678 27.0876 88.7674 27.4853 89.1677 27.8845H83.1953C83.5785 27.5019 83.7786 27.1073 83.7952 26.7019V26.6936V17.1317C83.7786 16.7211 83.5785 16.3239 83.1953 15.9408H89.1677C88.7674 16.3405 88.5678 16.7377 88.5678 17.1317L88.5761 19.5224H86.777C87.1767 19.1279 87.3769 18.7307 87.3769 18.331V17.1317H84.9862V26.6936H87.3769V25.4943C87.3769 25.094 87.1767 24.6974 86.777 24.3034H88.5678V26.6936Z"/>
<path d="M90.5994 21.1795C90.8327 21.1629 91.2298 21.0685 91.7903 20.8964V17.14C91.7903 16.7403 91.9905 16.34 92.3902 15.9408H90C90.3998 16.34 90.5994 16.7403 90.5994 17.14V21.1795ZM95.372 26.6936C95.372 27.0876 95.5721 27.4848 95.9719 27.8845H95.372C95.0443 27.8845 94.7643 27.7684 94.531 27.5351C94.2977 27.3017 94.181 27.0212 94.181 26.6936V21.9126C93.8031 21.9126 93.3867 21.9847 92.9315 22.1294C92.3373 22.3181 91.9573 22.429 91.7903 22.4622V26.7019C91.8069 27.1073 92.007 27.5014 92.3902 27.8845H90C90.3998 27.4848 90.5994 27.0876 90.5994 26.6936V22.3456C90.1996 22.118 90 21.7737 90 21.3128C90.2162 21.529 90.7632 21.5072 91.6405 21.2459C92.8008 20.8964 93.648 20.7217 94.181 20.7217V17.14C94.181 16.8066 94.2977 16.5235 94.531 16.2902C94.7643 16.0569 95.0443 15.9408 95.372 15.9408H95.9719C95.5887 16.3234 95.3886 16.718 95.372 17.1234V20.1218C95.372 20.4827 95.2362 20.7829 94.964 21.0214C95.2362 21.2604 95.372 21.557 95.372 21.9126V26.6936Z"/>
<path d="M104.209 17.14C104.209 16.7403 104.009 16.3405 103.609 15.9408H106C105.6 16.3405 105.4 16.7403 105.4 17.14V22.6121L107.79 18.2309V17.14C107.79 16.7403 107.59 16.3405 107.191 15.9408H109.581C109.182 16.3405 108.981 16.7403 108.981 17.14V26.6936C108.981 27.0876 109.182 27.4853 109.581 27.8845H107.191C107.59 27.4853 107.79 27.0876 107.79 26.6936V20.6216L105.4 25.0028V26.6936C105.4 27.0876 105.6 27.4853 106 27.8845H103.609C104.009 27.4853 104.209 27.0876 104.209 26.6936V17.14Z"/>
<path d="M97.4046 17.14C97.4046 16.7403 97.2044 16.3405 96.8047 15.9408H99.1954C98.7957 16.3405 98.5955 16.7403 98.5955 17.14V22.6121L100.986 18.2309V17.14C100.986 16.7403 100.786 16.3405 100.386 15.9408H102.777C102.377 16.3405 102.177 16.7403 102.177 17.14V26.6936C102.177 27.0876 102.377 27.4853 102.777 27.8845H100.386C100.786 27.4853 100.986 27.0876 100.986 26.6936V20.6216L98.5955 25.0028V26.6936C98.5955 27.0876 98.7957 27.4853 99.1954 27.8845H96.8047C97.2044 27.4853 97.4046 27.0876 97.4046 26.6936V17.14Z"/>
<path d="M120.021 26.6936C120.021 27.0876 120.221 27.4853 120.62 27.8845H114.648C115.032 27.5019 115.232 27.1073 115.248 26.7019V26.6936V17.1317C115.232 16.7211 115.032 16.3239 114.648 15.9408H120.62C120.221 16.3405 120.021 16.7377 120.021 17.1317L120.029 19.5224H118.23C118.63 19.1279 118.83 18.7307 118.83 18.331V17.1317H116.439V26.6936H118.83V25.4943C118.83 25.094 118.63 24.6974 118.23 24.3034H120.021V26.6936Z"/>
<path d="M127.814 19.5219H126.015C126.415 19.1273 126.614 18.7302 126.614 18.331V17.1395H125.423V26.693C125.423 27.0876 125.62 27.4848 126.015 27.8845H123.632C124.027 27.4848 124.224 27.0876 124.224 26.693V17.1395H123.033V18.331C123.033 18.7302 123.233 19.1273 123.632 19.5219H121.842V17.1395C121.842 16.7403 121.642 16.34 121.242 15.9402H128.405C128.005 16.34 127.806 16.7403 127.806 17.1395L127.814 19.5219Z"/>
<path d="M134.404 22.512C134.404 22.5509 134.401 22.5898 134.395 22.6287C134.367 22.9455 134.234 23.2063 133.996 23.4116C133.768 23.606 133.507 23.703 133.213 23.703C132.963 23.703 132.166 23.5225 130.822 23.1617V26.7019C130.839 27.1068 131.038 27.5014 131.422 27.8845H129.031C129.431 27.4848 129.631 27.0876 129.631 26.693V22.9455C129.348 22.9398 129.148 22.9952 129.031 23.1119C129.031 22.7619 129.156 22.4705 129.406 22.2372C129.639 22.0205 129.912 21.9126 130.222 21.9126C130.55 21.9126 131.547 22.1288 133.213 22.5618V17.1395H130.822V21.6539C130.6 21.6264 130.4 21.6124 130.222 21.6124C130.017 21.6124 129.82 21.6679 129.631 21.7789V17.1395C129.631 16.7403 129.431 16.34 129.031 15.9402H133.213C133.54 15.9402 133.82 16.0569 134.054 16.2902C134.287 16.5235 134.404 16.8066 134.404 17.1395V22.512Z"/>
<path d="M139.213 17.1395H136.823V26.693H139.213V17.1395ZM141.004 15.9402C140.603 16.34 140.404 16.7403 140.404 17.1395V26.693C140.404 27.0876 140.603 27.4848 141.004 27.8845H135.031C135.431 27.4848 135.631 27.0876 135.631 26.693V17.1395C135.631 16.7403 135.431 16.34 135.031 15.9402H141.004Z"/>
<path d="M142.435 17.14C142.435 16.7403 142.236 16.3405 141.836 15.9408H144.226C143.826 16.3405 143.626 16.7403 143.626 17.14V22.6121L146.017 18.2309V17.14C146.017 16.7403 145.817 16.3405 145.417 15.9408H147.808C147.408 16.3405 147.208 16.7403 147.208 17.14V26.6936C147.208 27.0876 147.408 27.4853 147.808 27.8845H145.417C145.817 27.4853 146.017 27.0876 146.017 26.6936V20.6216L143.626 25.0028V26.6936C143.626 27.0876 143.826 27.4853 144.226 27.8845H141.836C142.236 27.4853 142.435 27.0876 142.435 26.6936V17.14Z"/>
<path d="M155.001 19.5219H153.202C153.602 19.1273 153.802 18.7302 153.802 18.331V17.1395H152.611V26.693C152.611 27.0876 152.808 27.4848 153.202 27.8845H150.82C151.214 27.4848 151.411 27.0876 151.411 26.693V17.1395H150.22V18.331C150.22 18.7302 150.42 19.1273 150.82 19.5219H149.029V17.1395C149.029 16.7403 148.829 16.34 148.43 15.9402H155.593C155.193 16.34 154.993 16.7403 154.993 17.1395L155.001 19.5219Z"/>
<path d="M161.591 24.3028H159.8C160.2 24.7026 160.4 25.0998 160.4 25.4938V26.693H158.01V23.0284C158.226 22.9786 158.518 22.8926 158.884 22.7702C159.35 22.6095 159.634 22.5151 159.734 22.4871C160.372 22.2984 160.792 22.3067 160.991 22.512C160.991 22.1625 160.869 21.8732 160.625 21.6461C160.391 21.4237 160.117 21.3128 159.8 21.3128C159.239 21.3128 158.492 21.4875 157.56 21.8375C157.199 21.9764 156.938 22.0542 156.777 22.0708C156.538 22.104 156.352 22.0511 156.219 21.9126C156.219 22.3736 156.418 22.7178 156.819 22.9455V26.693C156.819 27.0876 156.619 27.4848 156.219 27.8845H162.191C161.791 27.4848 161.591 27.0876 161.591 26.693V24.3028ZM156.819 17.1395C156.819 16.7403 156.619 16.34 156.219 15.9402H162.191C161.791 16.34 161.591 16.7403 161.591 17.1395V19.5219H159.8C160.2 19.1279 160.4 18.7307 160.4 18.331V17.1395H158.01V21.3708C157.327 21.6155 156.93 21.7483 156.819 21.7711V17.1395Z"/>
<path d="M166.994 27.8845C167.332 27.4848 167.471 27.085 167.41 26.6853L166.094 17.9312L164.786 26.6853C164.725 27.085 164.864 27.4848 165.203 27.8845H162.812C163.268 27.4848 163.526 27.085 163.587 26.6853L165.02 17.1317C165.075 16.7263 164.936 16.3291 164.603 15.9408H167.585C167.252 16.34 167.113 16.7371 167.169 17.1317L168.601 26.6936C168.673 27.0985 168.934 27.4957 169.384 27.8845H166.994Z"/>
<path d="M175.388 26.6853C175.388 27.0181 175.271 27.3017 175.038 27.5345C174.805 27.7684 174.524 27.8845 174.197 27.8845H170.016C170.415 27.4848 170.616 27.085 170.616 26.6853V22.0459C170.804 22.1568 171.001 22.2123 171.207 22.2123C171.384 22.2123 171.584 22.1988 171.806 22.1708V26.6853H174.197V21.263C172.531 21.6959 171.534 21.9126 171.207 21.9126C170.895 21.9126 170.624 21.8043 170.39 21.5875C170.141 21.3547 170.016 21.0628 170.016 20.7134C170.132 20.8295 170.332 20.8855 170.616 20.8798V17.1317C170.616 16.7371 170.415 16.34 170.016 15.9408H172.406C172.023 16.3234 171.823 16.718 171.806 17.1234V20.6636C173.15 20.3022 173.947 20.1218 174.197 20.1218C174.491 20.1218 174.752 20.2188 174.98 20.4137C175.219 20.6185 175.352 20.8798 175.38 21.1966C175.385 21.235 175.388 21.2739 175.388 21.3128V26.6853Z"/>
<path d="M104.508 14.0638C104.508 14.0451 104.508 14.0264 104.508 14.0078C104.638 14.1198 104.794 14.154 104.96 14.1524C105.166 14.1504 105.367 14.1146 105.562 14.0534C105.885 13.9523 106.205 13.8445 106.525 13.7345C106.845 13.6241 107.173 13.5546 107.508 13.5189C107.565 13.5126 107.621 13.5064 107.678 13.5002C107.74 13.5002 107.802 13.4997 107.864 13.4997C107.902 13.5054 107.939 13.5121 107.977 13.5173C108.382 13.5764 108.756 13.9134 108.852 14.3101C108.871 14.3873 108.879 14.4672 108.892 14.546C108.892 14.5646 108.893 14.5833 108.893 14.602C108.762 14.49 108.606 14.4558 108.439 14.4573C108.234 14.4594 108.032 14.4952 107.838 14.5563C107.516 14.6574 107.195 14.7653 106.876 14.8752C106.556 14.9856 106.228 15.0551 105.892 15.0909C105.835 15.0971 105.779 15.1033 105.722 15.1096C105.66 15.1101 105.598 15.1101 105.536 15.1106C105.499 15.1044 105.461 15.0982 105.423 15.0924C105.018 15.0328 104.645 14.6968 104.548 14.2997C104.529 14.2224 104.521 14.1426 104.508 14.0638Z"/>
<path d="M24.1755 5.49977C24.1127 5.57584 24.053 5.65464 23.9867 5.72719C23.4019 6.36809 22.9198 7.07258 22.7107 7.93193C22.6385 8.22995 22.6038 8.54123 22.5882 8.84862C22.5679 9.24806 22.5831 9.64945 22.5831 10.0586H19.4118V8.7429H13.0414V27.3494H9.85793V27.1574C9.85793 21.0972 9.85286 15.0369 9.8634 8.97656C9.86496 8.05441 9.60438 7.2368 9.07543 6.5015C8.85348 6.19295 8.59407 5.91248 8.35222 5.61836C8.32102 5.58052 8.29449 5.53917 8.26562 5.49977H24.1755Z" fill="#DDB44C"/>
<path d="M32.4782 11.3554C31.7175 12.1191 31.1055 12.9703 30.9178 14.0703C30.9022 14.16 30.8882 14.2513 30.8886 14.3418C30.8894 15.0299 30.8937 15.7184 30.8968 16.4065C30.8976 16.5477 30.8972 16.6889 30.8976 16.8305C30.8995 17.7332 30.9018 18.6358 30.9042 19.5385C30.9042 19.5919 30.9042 19.6454 30.9042 19.7078H26.1085C26.1842 19.6266 26.2443 19.5627 26.304 19.4987C26.8633 18.8933 27.3463 18.236 27.5596 17.4223C27.6431 17.1048 27.6837 16.7689 27.6942 16.4397C27.7133 15.8389 27.6958 15.2367 27.6934 14.6348C27.693 14.6129 27.6895 14.5911 27.6864 14.5564H14.3047V11.3296H14.449C17.8529 11.3296 21.2567 11.3296 24.6609 11.33C27.2218 11.3304 29.7823 11.332 32.3432 11.3327C32.3881 11.3327 32.4333 11.3296 32.4782 11.328V11.3554Z" fill="#DDB44C"/>
<path d="M32.4798 31.877C32.4443 31.8731 32.4088 31.866 32.3733 31.866C30.9347 31.8653 29.496 31.8641 28.0578 31.8656C26.6964 31.8672 25.3347 31.8719 23.9733 31.875C23.9378 31.8754 23.9027 31.875 23.8594 31.875V28.6557H27.6892C27.6943 28.6034 27.7013 28.5644 27.7017 28.5258C27.7017 27.9559 27.7005 27.386 27.7001 26.8164C27.6997 26.0527 27.4555 25.3634 27.0331 24.7439C26.7885 24.3855 26.4932 24.0625 26.2201 23.7243C26.1897 23.6864 26.1534 23.6529 26.1047 23.6014H30.8816V23.757C30.8816 25.3392 30.8882 26.9218 30.8789 28.5039C30.8742 29.2322 31.0665 29.8969 31.4297 30.5171C31.7187 31.0102 32.0749 31.4494 32.4798 31.8496V31.877Z" fill="#DDB44C"/>
<path d="M18.106 28.6462V31.8621H0C0.131847 31.715 0.247311 31.5902 0.358484 31.4614C0.907327 30.8241 1.33252 30.12 1.51663 29.2832C1.62352 28.7964 1.58451 28.3034 1.5888 27.8119C1.58919 27.7576 1.58295 27.703 1.58334 27.6484C1.58334 24.7618 1.58334 21.8752 1.5849 18.9886C1.58568 17.6253 1.57241 16.2616 1.5966 14.8986C1.61454 13.8875 1.30248 13.0009 0.718918 12.2008C0.529339 11.9414 0.308554 11.705 0.102202 11.4581C0.0741157 11.4246 0.0452498 11.3914 0.00195082 11.3407H8.57554V14.5511H4.78122V28.6462H18.106Z" fill="#DDB44C"/>
<path d="M22.5769 15.8539V16.0524C22.5769 22.112 22.5828 28.1719 22.5711 34.2314C22.5691 35.2093 22.8597 36.0655 23.4297 36.8356C23.6532 37.1375 23.9036 37.4187 24.1466 37.7156H17.8047C17.8819 37.6321 17.9486 37.5611 18.0142 37.4893C18.5848 36.8625 19.0728 36.1814 19.2769 35.34C19.3553 35.0158 19.3974 34.6745 19.3978 34.3414C19.4048 28.2452 19.4028 22.149 19.4028 16.0528V15.8539H22.5769Z" fill="#DDB44C"/>
<path d="M9.85168 33.1704H13.0258C13.0258 33.2285 13.0254 33.2811 13.0258 33.3342C13.0293 33.7531 13.0281 34.1725 13.0371 34.5914C13.0539 35.3599 13.3328 36.041 13.7611 36.6588C14.0158 37.0267 14.3111 37.3653 14.5869 37.7156H8.25781C8.3132 37.6543 8.35689 37.6052 8.40175 37.5576C8.95528 36.9666 9.42181 36.3199 9.67849 35.537C9.79551 35.1797 9.85051 34.8122 9.85168 34.4362C9.85246 34.018 9.85168 33.5994 9.85168 33.1704Z" fill="#DDB44C"/>
</svg>
