<svg width="16" height="16" viewBox="0 0 16 16" xmlns="http://www.w3.org/2000/svg">
<path fill-rule="evenodd" clip-rule="evenodd" d="M8 15C8 15 14 11.1818 14 6.72727C14 5.20831 13.3679 3.75155 12.2426 2.67748C11.1174 1.60341 9.5913 1 8 1C6.4087 1 4.88258 1.60341 3.75736 2.67748C2.63214 3.75155 2 5.20831 2 6.72727C2 11.1818 8 15 8 15ZM10 6.72745C10 7.78181 9.10457 8.63654 8 8.63654C6.89543 8.63654 6 7.78181 6 6.72745C6 5.67308 6.89543 4.81836 8 4.81836C9.10457 4.81836 10 5.67308 10 6.72745Z"/>
</svg>
