<svg width="21" height="20" viewBox="0 0 21 20" fill="none" xmlns="http://www.w3.org/2000/svg">
<g clip-path="url(#clip0_2318_50005)">
<path d="M3.764 8.57921C3.70042 8.644 3.62456 8.69547 3.54085 8.73061C3.45715 8.76574 3.36728 8.78384 3.2765 8.78384C3.18572 8.78384 3.09585 8.76574 3.01215 8.73061C2.92844 8.69547 2.85258 8.644 2.789 8.57921C2.65959 8.44755 2.58707 8.27032 2.58707 8.0857C2.58707 7.90109 2.65959 7.72387 2.789 7.59221L8.82 1.50021C10.18 0.444205 11.548 -0.062795 12.91 0.00620503C14.626 0.094205 15.962 0.748205 17.096 1.82121C18.252 2.91521 19 4.47621 19 6.36821C19 7.82021 18.578 9.09821 17.687 10.2322L9.184 18.9922C8.324 19.6972 7.368 20.0382 6.344 19.9972C5.044 19.9432 4.077 19.5232 3.358 18.8122C2.516 17.9812 2 16.9602 2 15.5872C2 14.4952 2.377 13.4872 3.155 12.5412L10.639 4.90021C11.239 4.26021 11.826 3.88021 12.426 3.78821C12.8265 3.72548 13.2362 3.76147 13.6196 3.89304C14.003 4.02461 14.3484 4.2478 14.626 4.54321C15.158 5.10621 15.386 5.8082 15.306 6.6072C15.251 7.1522 15.028 7.65421 14.618 8.13521L7.738 15.1832C7.67483 15.2482 7.59935 15.3001 7.51596 15.3356C7.43256 15.3712 7.34292 15.3898 7.25226 15.3903C7.1616 15.3909 7.07173 15.3734 6.9879 15.3389C6.90408 15.3043 6.82796 15.2535 6.764 15.1892C6.63378 15.0583 6.56019 14.8815 6.55906 14.6969C6.55794 14.5123 6.62938 14.3347 6.758 14.2022L13.605 7.19021C13.805 6.95521 13.91 6.71821 13.935 6.46621C13.975 6.06621 13.879 5.7712 13.63 5.5082C13.5041 5.37365 13.347 5.27223 13.1726 5.21292C12.9982 5.15361 12.8118 5.13826 12.63 5.16821C12.387 5.20521 12.047 5.42621 11.628 5.87221L4.175 13.4792C3.638 14.1342 3.378 14.8292 3.378 15.5882C3.378 16.5422 3.723 17.2252 4.32 17.8142C4.795 18.2842 5.44 18.5642 6.4 18.6042C7.08 18.6312 7.71 18.4062 8.258 17.9622L16.655 9.31221C17.3 8.48521 17.622 7.51221 17.622 6.3692C17.622 4.88721 17.045 3.68521 16.154 2.84121C15.244 1.97921 14.204 1.47121 12.841 1.40121C11.833 1.34921 10.776 1.7412 9.724 2.5472L3.764 8.57921Z" fill="#282828"/>
</g>
<defs>
<clipPath id="clip0_2318_50005">
<rect width="20" height="20" fill="white" transform="translate(0.5)"/>
</clipPath>
</defs>
</svg>
