<svg width="56" height="56" viewBox="0 0 56 56" fill="none" xmlns="http://www.w3.org/2000/svg">
<path d="M26.1635 34.118L37.347 22.9664L35.2122 20.8255L26.1635 29.8484L21.7015 25.3991L19.5667 27.5401L26.1635 34.118Z" fill="#DDB44C"/>
<path fill-rule="evenodd" clip-rule="evenodd" d="M35.7173 11.2784L28.4569 8.16675L21.1964 11.2784L12.8359 10.084V27.7499C12.8359 34.6476 16.5457 41.0121 22.5476 44.4114L28.5895 47.8334L34.4941 44.429C40.424 41.01 44.0778 34.6856 44.0778 27.8406V10.084L35.7173 11.2784ZM21.6081 14.3913L28.4569 11.4561L35.3056 14.3913L41.0544 13.57V27.8406C41.0544 33.6048 37.9775 38.9306 32.9839 41.8098L28.5761 44.3512L24.0376 41.7807C18.9834 38.9181 15.8593 33.5585 15.8593 27.7499V13.57L21.6081 14.3913Z" fill="#DDB44C"/>
</svg>
