<svg width="56" height="56" viewBox="0 0 56 56" fill="none" xmlns="http://www.w3.org/2000/svg">
<path d="M47.9956 23.3924H9.00287M17.6297 11.357L27.9818 44.956M39.3687 11.357L29.1453 44.9343M30.8716 43.9298C30.5772 44.2656 30.213 44.5351 29.8037 44.7198C29.3945 44.9044 28.9498 45 28.5 45C28.0502 45 27.6055 44.9044 27.1963 44.7198C26.7872 44.5351 26.423 44.2656 26.1284 43.9298L9.76594 25.2823C9.29664 24.7473 9.02702 24.0697 9.00193 23.3623C8.97683 22.6549 9.19767 21.9603 9.62791 21.3941L16.5669 12.2392C16.8591 11.8545 17.2381 11.5422 17.6736 11.3271C18.1092 11.112 18.5895 11 19.0765 11H37.8984C38.3854 11 38.8657 11.112 39.3013 11.3271C39.737 11.5422 40.1158 11.8545 40.408 12.2392L47.3721 21.3941C47.8023 21.9603 48.0232 22.6549 47.9981 23.3623C47.973 24.0697 47.7034 24.7473 47.2341 25.2823L30.8716 43.9298Z" stroke="#DDB44C" stroke-width="2.5" stroke-linecap="round" stroke-linejoin="round"/>
</svg>
