<svg width="100" height="100" viewBox="0 0 100 100" fill="none" xmlns="http://www.w3.org/2000/svg">
<path d="M45.3297 18.353C33.0276 26.2301 26.8766 35.7166 26.8766 46.8124C26.8766 50.2645 27.4776 51.9905 28.6797 51.9905L29.9172 51.6562C30.8901 51.2812 31.6776 51.0937 32.2797 51.0937C35.8047 51.0937 38.7474 52.3749 41.1078 54.9374C43.4682 57.4999 44.6495 60.6624 44.6516 64.4249C44.6495 68.0416 43.3734 71.1114 40.8234 73.6343C38.2734 76.1551 35.1984 77.4155 31.5984 77.4155C26.5734 77.4155 22.4276 75.3499 19.1609 71.2187C15.9026 67.0937 14.2734 61.9093 14.2734 55.6655C14.2714 48.603 15.6568 42.1416 18.4297 36.2812C21.2089 30.4228 25.4464 25.1259 31.1422 20.3905C36.8422 15.6593 40.4797 13.2926 42.0547 13.2905C43.1047 13.2905 43.9672 13.7968 44.6422 14.8093C45.3172 15.8197 45.6547 16.6999 45.6547 17.4499L45.3203 18.3499L45.3297 18.353ZM85.8297 18.353C73.5276 26.228 67.3776 35.7155 67.3797 46.8155C67.3797 50.2676 67.9807 51.9937 69.1828 51.9937L70.4203 51.6593C71.3932 51.2843 72.1807 51.0968 72.7828 51.0968C76.2328 51.0968 79.1568 52.378 81.5547 54.9405C83.9568 57.4989 85.1568 60.6614 85.1547 64.428C85.1526 68.0447 83.8766 71.1145 81.3266 73.6374C78.7766 76.1582 75.7016 77.4187 72.1016 77.4187C67.0766 77.4187 62.9307 75.353 59.6641 71.2218C56.4057 67.0968 54.7766 61.9124 54.7766 55.6687C54.7724 48.5312 56.1786 42.0145 58.9953 36.1187C61.8078 30.2207 66.0443 24.9426 71.7047 20.2843C77.3755 15.6239 80.9953 13.2937 82.5641 13.2937C83.6161 13.2937 84.4807 13.7999 85.1578 14.8124C85.8307 15.8249 86.1672 16.7062 86.1672 17.4562L85.8297 18.353Z" fill="#CFCFCF"/>
</svg>
