<svg width="20" height="20" viewBox="0 0 20 20" fill="none" xmlns="http://www.w3.org/2000/svg">
<path fill-rule="evenodd" clip-rule="evenodd" d="M13.9361 12.7539C14.9752 11.4142 15.465 9.72896 15.3057 8.04098C15.1464 6.353 14.35 4.78911 13.0786 3.66747C11.8071 2.54583 10.1561 1.95069 8.46146 2.00313C6.76679 2.05557 5.15575 2.75165 3.95609 3.94976C2.75539 5.1487 2.05704 6.76036 2.00334 8.45631C1.94965 10.1523 2.54466 11.8049 3.66712 13.0774C4.78958 14.3499 6.35501 15.1465 8.0444 15.3048C9.7338 15.4632 11.42 14.9715 12.7594 13.9298L12.7953 13.9673L16.3303 17.5031C16.4077 17.5805 16.4996 17.6419 16.6008 17.6838C16.7019 17.7257 16.8103 17.7473 16.9198 17.7473C17.0293 17.7473 17.1378 17.7257 17.2389 17.6838C17.3401 17.6419 17.432 17.5805 17.5094 17.5031C17.5869 17.4257 17.6483 17.3338 17.6902 17.2326C17.7321 17.1314 17.7536 17.023 17.7536 16.9135C17.7536 16.804 17.7321 16.6956 17.6902 16.5944C17.6483 16.4933 17.5869 16.4014 17.5094 16.3239L13.9736 12.7889L13.9361 12.7539ZM12.2061 5.12893C12.6766 5.59183 13.0508 6.1433 13.3071 6.75154C13.5634 7.35978 13.6967 8.01275 13.6994 8.67278C13.7021 9.33281 13.5741 9.98684 13.3228 10.5971C13.0714 11.2075 12.7017 11.762 12.235 12.2287C11.7683 12.6954 11.2138 13.0651 10.6035 13.3164C9.99317 13.5678 9.33914 13.6958 8.67911 13.6931C8.01908 13.6904 7.36611 13.5571 6.75787 13.3008C6.14963 13.0445 5.59816 12.6703 5.13526 12.1998C4.21019 11.2595 3.69414 9.99179 3.69951 8.67278C3.70488 7.35376 4.23124 6.0903 5.16394 5.1576C6.09663 4.22491 7.36009 3.69855 8.67911 3.69318C9.99813 3.68781 11.2658 4.20386 12.2061 5.12893Z" fill="#7F7F80"/>
</svg>
