<?xml version="1.0" encoding="utf-8"?><svg viewBox="0 0 177 100" xmlns="http://www.w3.org/2000/svg" xmlns:xlink="http://www.w3.org/1999/xlink"><style>:root>svg{display:none}:root>svg:target{display:block}</style><svg viewBox="0 0 16 16" id="archive" xmlns="http://www.w3.org/2000/svg"><path d="M2.003 6.667h12v6.669a.663.663 0 01-.662.664H2.665a.662.662 0 01-.662-.664v-6.67zm4 1.333v1.333h4V8h-4zM1.336 2.667c0-.368.303-.667.661-.667h12.01c.366 0 .662.296.662.667v2.666H1.336V2.667z"/></svg><svg fill="none" viewBox="0 0 24 24" id="arrow" xmlns="http://www.w3.org/2000/svg"><path d="M8.203 4c0 .848.88 2.114 1.77 3.177 1.145 1.372 2.513 2.568 4.081 3.481 1.176.685 2.602 1.342 3.75 1.342-1.148 0-2.575.657-3.75 1.342-1.568.914-2.936 2.11-4.08 3.48-.891 1.064-1.77 2.332-1.77 3.178"/></svg><svg fill="none" viewBox="0 0 16 17" id="arrow-down" xmlns="http://www.w3.org/2000/svg"><path d="M13 5.5c-.53 0-1.321.55-1.986 1.106A9.686 9.686 0 008.84 9.157C8.41 9.892 8 10.783 8 11.5c0-.717-.41-1.609-.839-2.343a9.724 9.724 0 00-2.175-2.55C4.321 6.05 3.53 5.5 3 5.5"/></svg><svg fill="none" viewBox="0 0 24 24" id="arrow-left" xmlns="http://www.w3.org/2000/svg"><path d="M15.797 20c0-.848-.88-2.114-1.77-3.177-1.145-1.372-2.513-2.568-4.081-3.481C8.77 12.657 7.344 12 6.196 12c1.148 0 2.575-.657 3.75-1.342 1.568-.914 2.936-2.11 4.08-3.48.891-1.064 1.77-2.332 1.77-3.178"/></svg><svg fill="none" viewBox="0 0 38 21" id="developer" xmlns="http://www.w3.org/2000/svg"><path d="M17.335 7.879c.873 0 1.631.165 2.274.495A3.38 3.38 0 0121.1 9.75c.352.599.527 1.3.527 2.104v.155c0 .804-.175 1.51-.527 2.12a3.588 3.588 0 01-1.491 1.392c-.643.32-1.4.479-2.274.479-1.065 0-1.943-.284-2.636-.85l-.06.664h-2.034V5.048h2.184v3.62c.703-.526 1.551-.79 2.546-.79zm2.033 3.975c0-.608-.206-1.083-.617-1.423-.412-.34-.99-.51-1.733-.51-.472 0-.908.077-1.31.232-.392.154-.698.366-.919.634v2.29c.231.268.542.484.934.649.392.155.823.232 1.295.232.743 0 1.32-.17 1.732-.51.412-.34.618-.82.618-1.439v-.155zM11.3 8.064v1.98H9.613c-.944 0-1.607.243-1.988.727v5.043h-2.17v-7.75H7.49l.06.712c.633-.474 1.416-.712 2.35-.712h1.4zM3.274 5.667v10.147H1V5.667h2.274zM31.677 16c-1.416 0-2.52-.227-3.314-.68-.783-.465-1.174-1.12-1.174-1.965v-.078h2.093v.078c0 .288.191.5.573.634.381.124.999.186 1.852.186 1.406 0 2.109-.207 2.109-.62v-.076c0-.155-.09-.274-.271-.356-.18-.083-.507-.145-.98-.186l-1.942-.201c-1.115-.113-1.928-.35-2.44-.712-.512-.36-.768-.871-.768-1.531v-.155c0-.773.371-1.376 1.114-1.81.753-.433 1.798-.65 3.133-.65 1.386 0 2.45.228 3.193.681.743.454 1.115 1.109 1.115 1.965v.093h-2.094v-.093c0-.289-.18-.495-.542-.619-.351-.134-.929-.2-1.732-.2-.653 0-1.155.045-1.506.138-.352.093-.527.227-.527.402v.093c0 .155.08.274.24.356.171.083.447.144.829.186l1.973.2c1.185.125 2.044.367 2.576.728.542.36.813.882.813 1.562v.155c0 .784-.382 1.392-1.145 1.825-.763.433-1.822.65-3.178.65z" fill="#fff"/><path d="M23.051 5h2.106v2.163H23.05V5z" fill="#0BF"/><path d="M25.157 8.028v7.786H23.05V8.028h2.106z" fill="#fff"/></svg><svg fill="none" viewBox="0 0 24 24" id="download" xmlns="http://www.w3.org/2000/svg"><path d="M5 21h14M12 3v13.5m0 0l4.083-3.938M12 16.5l-4.083-3.938"/></svg><svg viewBox="0 0 16 16" id="grid" xmlns="http://www.w3.org/2000/svg"><path d="M2 3a1 1 0 011-1h3a1 1 0 011 1v3a1 1 0 01-1 1H3a1 1 0 01-1-1V3zM2 10a1 1 0 011-1h3a1 1 0 011 1v3a1 1 0 01-1 1H3a1 1 0 01-1-1v-3zM9 3a1 1 0 011-1h3a1 1 0 011 1v3a1 1 0 01-1 1h-3a1 1 0 01-1-1V3zM9 10a1 1 0 011-1h3a1 1 0 011 1v3a1 1 0 01-1 1h-3a1 1 0 01-1-1v-3z"/></svg><svg viewBox="0 0 20 20" id="location" xmlns="http://www.w3.org/2000/svg"><path d="M8.88 2v2.107A6.024 6.024 0 004.107 8.88H2v2.24h2.107a6.023 6.023 0 004.773 4.773V18h2.24v-2.107a6.023 6.023 0 004.773-4.773H18V8.88h-2.107a6.023 6.023 0 00-4.773-4.773V2H8.88zM10 5.6a4.388 4.388 0 014.4 4.4 4.387 4.387 0 01-4.4 4.4A4.387 4.387 0 015.6 10 4.388 4.388 0 0110 5.6z"/></svg><svg viewBox="0 0 177 43" id="logo" xmlns="http://www.w3.org/2000/svg"><path d="M48.972 15.94c-.383.384-.583.781-.6 1.192v9.553c0 .4.2.8.6 1.2h-2.39c.4-.4.599-.8.599-1.2v-9.553h-2.39v9.553c0 .4.2.8.6 1.2H43c.4-.4.6-.8.6-1.2v-9.553c0-.394-.2-.792-.6-1.191h5.972zM55.177 24.303h-1.79c.4.4.6.797.6 1.19v1.2h-2.392v-3.665c.217-.05.509-.135.875-.258.467-.16.75-.255.85-.283.638-.189 1.058-.18 1.258.025 0-.35-.123-.639-.367-.866a1.157 1.157 0 00-.825-.333c-.56 0-1.307.175-2.24.524-.361.14-.622.217-.783.234-.239.033-.425-.02-.558-.158 0 .46.2.805.6 1.032v3.748c0 .395-.2.792-.6 1.191h5.972c-.4-.4-.6-.796-.6-1.191v-2.39zm-4.772-7.163c0-.4-.2-.8-.6-1.2h5.972c-.4.4-.6.8-.6 1.2v2.382h-1.79c.4-.394.6-.791.6-1.191V17.14h-2.392v4.23c-.682.245-1.08.378-1.19.401V17.14zM62.97 19.522h-1.799c.4-.395.6-.792.6-1.191V17.14H60.58v9.553c0 .395.197.792.591 1.191H58.79c.394-.4.591-.796.591-1.191V17.14h-1.19v1.191c0 .4.2.796.6 1.19h-1.792V17.14c0-.4-.2-.8-.6-1.2h7.164c-.4.4-.6.8-.6 1.2l.008 2.382zM69.56 22.512a.804.804 0 01-.008.117 1.126 1.126 0 01-.4.783 1.171 1.171 0 01-.783.291c-.25 0-1.047-.18-2.39-.541v3.54c.016.405.216.8.6 1.182h-2.391c.4-.4.6-.796.6-1.191v-3.748c-.284-.005-.484.05-.6.167 0-.35.124-.641.374-.875.234-.216.506-.324.817-.324.327 0 1.324.216 2.99.649V17.14h-2.39v4.514a4.928 4.928 0 00-.6-.042 1.15 1.15 0 00-.592.167v-4.64c0-.399-.2-.799-.6-1.199h4.182c.328 0 .608.117.841.35.233.233.35.517.35.85v5.372zM74.37 17.14h-2.391v9.553h2.39V17.14zm1.79-1.2c-.4.4-.6.8-.6 1.2v9.553c0 .395.2.792.6 1.191h-5.972c.4-.4.6-.796.6-1.191V17.14c0-.4-.2-.8-.6-1.2h5.971zM81.173 21.913c-.378 0-.794.072-1.25.216-.594.19-.974.297-1.14.325v4.24h2.39v-4.781zm1.191-1.791c0 .355-.133.652-.4.891.267.239.4.539.4.9v4.78c0 .328-.117.609-.35.842-.233.233-.513.35-.84.35h-4.182c.4-.4.6-.797.6-1.191v-4.348c-.4-.228-.6-.572-.6-1.033.133.139.35.192.65.158.216-.017.547-.095.99-.233 1.162-.345 2.008-.516 2.541-.516v-3.59h-2.39v3.764c-.567.172-.964.267-1.191.284V17.13c0-.393-.2-.79-.6-1.19h4.181c.328 0 .608.116.841.35.234.232.35.513.35.84v2.99zM88.568 26.694c0 .394.2.791.6 1.19h-5.973c.384-.382.584-.777.6-1.182V17.132c-.016-.41-.216-.808-.6-1.191h5.973c-.4.4-.6.797-.6 1.19l.008 2.391h-1.799c.4-.394.6-.791.6-1.191v-1.2h-2.39v9.563h2.39v-1.2c0-.4-.2-.797-.6-1.19h1.79v2.39zM90.6 21.18c.233-.017.63-.111 1.19-.284V17.14c0-.4.2-.8.6-1.2H90c.4.4.6.8.6 1.2v4.04zm4.772 5.514c0 .394.2.79.6 1.19h-.6c-.328 0-.608-.116-.841-.349a1.148 1.148 0 01-.35-.841v-4.781c-.378 0-.794.072-1.25.216-.594.19-.974.3-1.14.333v4.24c.016.405.216.8.6 1.182H90c.4-.4.6-.796.6-1.19v-4.348c-.4-.228-.6-.572-.6-1.033.216.216.763.194 1.64-.067 1.16-.35 2.008-.524 2.541-.524V17.14c0-.333.117-.617.35-.85.233-.233.513-.35.841-.35h.6c-.383.383-.583.778-.6 1.183v2.999c0 .36-.136.66-.408.9.272.238.408.535.408.89v4.782zM104.209 17.14c0-.4-.2-.8-.6-1.2H106c-.4.4-.6.8-.6 1.2v5.472l2.39-4.381V17.14c0-.4-.2-.8-.599-1.2h2.39c-.399.4-.6.8-.6 1.2v9.554c0 .394.201.791.6 1.19h-2.39c.399-.399.599-.796.599-1.19v-6.072l-2.39 4.38v1.692c0 .394.2.791.6 1.19h-2.391c.4-.399.6-.796.6-1.19V17.14zM97.405 17.14c0-.4-.2-.8-.6-1.2h2.39c-.4.4-.6.8-.6 1.2v5.472l2.391-4.381V17.14c0-.4-.2-.8-.6-1.2h2.391c-.4.4-.6.8-.6 1.2v9.554c0 .394.2.791.6 1.19h-2.391c.4-.399.6-.796.6-1.19v-6.072l-2.39 4.38v1.692c0 .394.2.791.6 1.19h-2.391c.4-.399.6-.796.6-1.19V17.14zM120.021 26.694c0 .394.2.791.599 1.19h-5.972c.384-.382.584-.777.6-1.182V17.132c-.016-.41-.216-.808-.6-1.191h5.972c-.399.4-.599.797-.599 1.19l.008 2.391h-1.799c.4-.394.6-.791.6-1.191v-1.2h-2.391v9.563h2.391v-1.2c0-.4-.2-.797-.6-1.19h1.791v2.39zM127.814 19.522h-1.799c.4-.395.599-.792.599-1.191V17.14h-1.191v9.553c0 .395.197.792.592 1.191h-2.383c.395-.4.592-.796.592-1.191V17.14h-1.191v1.191c0 .4.2.796.599 1.19h-1.79V17.14c0-.4-.2-.8-.6-1.2h7.163c-.4.4-.599.8-.599 1.2l.008 2.382zM134.404 22.512a.764.764 0 01-.009.117 1.127 1.127 0 01-.399.783 1.172 1.172 0 01-.783.291c-.25 0-1.047-.18-2.391-.541v3.54c.017.405.216.8.6 1.182h-2.391c.4-.4.6-.796.6-1.191v-3.748c-.283-.005-.483.05-.6.167 0-.35.125-.641.375-.875.233-.216.506-.324.816-.324.328 0 1.325.216 2.991.649V17.14h-2.391v4.514a4.93 4.93 0 00-.6-.042 1.15 1.15 0 00-.591.167v-4.64c0-.399-.2-.799-.6-1.199h4.182c.327 0 .607.117.841.35.233.233.35.517.35.85v5.372zM139.213 17.14h-2.39v9.553h2.39V17.14zm1.791-1.2c-.401.4-.6.8-.6 1.2v9.553c0 .395.199.792.6 1.191h-5.973c.4-.4.6-.796.6-1.191V17.14c0-.4-.2-.8-.6-1.2h5.973zM142.435 17.14c0-.4-.199-.8-.599-1.2h2.39c-.4.4-.6.8-.6 1.2v5.472l2.391-4.381V17.14c0-.4-.2-.8-.6-1.2h2.391c-.4.4-.6.8-.6 1.2v9.554c0 .394.2.791.6 1.19h-2.391c.4-.399.6-.796.6-1.19v-6.072l-2.391 4.38v1.692c0 .394.2.791.6 1.19h-2.39c.4-.399.599-.796.599-1.19V17.14zM155.001 19.522h-1.799c.4-.395.6-.792.6-1.191V17.14h-1.191v9.553c0 .395.197.792.591 1.191h-2.382c.394-.4.591-.796.591-1.191V17.14h-1.191v1.191c0 .4.2.796.6 1.19h-1.791V17.14c0-.4-.2-.8-.599-1.2h7.163c-.4.4-.6.8-.6 1.2l.008 2.382zM161.591 24.303H159.8c.4.4.6.797.6 1.19v1.2h-2.39v-3.665c.216-.05.508-.135.874-.258.466-.16.75-.255.85-.283.638-.189 1.058-.18 1.257.025 0-.35-.122-.639-.366-.866a1.157 1.157 0 00-.825-.333c-.561 0-1.308.175-2.24.524-.361.14-.622.217-.783.234-.239.033-.425-.02-.558-.158 0 .46.199.805.6 1.032v3.748c0 .395-.2.792-.6 1.191h5.972c-.4-.4-.6-.796-.6-1.191v-2.39zm-4.772-7.163c0-.4-.2-.8-.6-1.2h5.972c-.4.4-.6.8-.6 1.2v2.382H159.8c.4-.394.6-.791.6-1.191V17.14h-2.39v4.23c-.683.245-1.08.378-1.191.401V17.14zM166.994 27.884c.338-.4.477-.799.416-1.199l-1.316-8.754-1.308 8.754c-.061.4.078.8.417 1.2h-2.391c.456-.4.714-.8.775-1.2l1.433-9.553c.055-.406-.084-.803-.417-1.191h2.982c-.333.399-.472.796-.416 1.19l1.432 9.563c.072.405.333.802.783 1.19h-2.39zM175.388 26.685c0 .333-.117.617-.35.85-.233.233-.514.35-.841.35h-4.181c.399-.4.6-.8.6-1.2v-4.64c.188.112.385.167.591.167.177 0 .377-.013.599-.041v4.514h2.391v-5.422c-1.666.433-2.663.65-2.99.65-.312 0-.583-.109-.817-.326a1.148 1.148 0 01-.374-.874c.116.116.316.172.6.167v-3.748c0-.395-.201-.792-.6-1.191h2.39c-.383.382-.583.777-.6 1.182v3.54c1.344-.36 2.141-.541 2.391-.541.294 0 .555.097.783.292.239.204.372.466.4.783a.901.901 0 01.008.116v5.372zM104.508 14.064v-.056c.13.112.286.146.452.144.206-.002.407-.037.602-.099.323-.1.643-.209.963-.319.32-.11.648-.18.983-.215l.17-.019h.186l.113.017c.405.06.779.396.875.793.019.077.027.157.04.236l.001.056a.658.658 0 00-.454-.145 2.072 2.072 0 00-.601.1c-.322.1-.643.208-.962.318-.32.11-.648.18-.984.216l-.17.019h-.186a7.883 7.883 0 00-.113-.018 1.103 1.103 0 01-.875-.792c-.019-.078-.027-.157-.04-.236z"/><path d="M24.175 5.5c-.062.076-.122.155-.188.227-.585.641-1.067 1.346-1.276 2.205-.072.298-.107.61-.123.917-.02.4-.005.8-.005 1.21h-3.171V8.743h-6.37v18.606H9.857v-.192c0-6.06-.005-12.12.005-18.18A4.106 4.106 0 009.075 6.5c-.222-.308-.48-.589-.723-.883-.031-.037-.058-.079-.086-.118h15.91z" fill="#DDB44C"/><path d="M32.478 11.355c-.76.764-1.373 1.615-1.56 2.715-.016.09-.03.181-.03.272.001.688.006 1.376.009 2.065v.424l.007 2.707v.17h-4.796l.196-.21c.56-.605 1.042-1.262 1.256-2.076a4.45 4.45 0 00.134-.982c.02-.601.002-1.203 0-1.805-.001-.022-.005-.044-.008-.079H14.305V11.33H24.66l7.682.003c.045 0 .09-.003.135-.005v.027zM32.48 31.877c-.036-.004-.071-.011-.107-.011-1.438 0-2.877-.002-4.315 0-1.362.001-2.723.006-4.085.009h-.114v-3.22h3.83c.005-.052.012-.09.013-.13l-.002-1.709c0-.763-.244-1.453-.667-2.072-.245-.358-.54-.681-.813-1.02-.03-.038-.067-.071-.115-.123h4.777v.156c0 1.582.006 3.165-.003 4.747a3.86 3.86 0 00.55 2.013c.29.493.646.932 1.05 1.333v.027zM18.106 28.646v3.216H0c.132-.147.247-.272.358-.4.55-.638.975-1.342 1.159-2.179.107-.487.068-.98.072-1.471 0-.054-.006-.109-.006-.164 0-2.886 0-5.773.002-8.66 0-1.363-.013-2.726.012-4.09.018-1.01-.295-1.897-.878-2.697-.19-.26-.41-.496-.617-.743l-.1-.117h8.574v3.21H4.78v14.095h13.325z" fill="#DDB44C"/><path d="M22.577 15.854v.198c0 6.06.006 12.12-.006 18.18a4.234 4.234 0 00.859 2.604c.223.302.474.583.717.88h-6.342l.21-.227c.57-.627 1.058-1.308 1.262-2.149.078-.324.12-.666.12-.999.008-6.096.006-12.192.006-18.288v-.2h3.174zM9.852 33.17h3.174v.164c.003.42.002.838.011 1.257.017.769.296 1.45.724 2.068.255.368.55.706.826 1.057h-6.33l.145-.158c.553-.591 1.02-1.238 1.276-2.021a3.55 3.55 0 00.174-1.1V33.17z" fill="#DDB44C"/></svg><svg viewBox="0 0 16 16" id="mark" xmlns="http://www.w3.org/2000/svg"><path fill-rule="evenodd" clip-rule="evenodd" d="M8 15s6-3.818 6-8.273a5.598 5.598 0 00-1.757-4.05A6.148 6.148 0 008 1a6.148 6.148 0 00-4.243 1.677A5.598 5.598 0 002 6.727C2 11.182 8 15 8 15zm2-8.273c0 1.055-.895 1.91-2 1.91s-2-.855-2-1.91c0-1.054.895-1.909 2-1.909s2 .855 2 1.91z"/></svg><svg fill="none" viewBox="0 0 16 16" id="metro" xmlns="http://www.w3.org/2000/svg"><path fill-rule="evenodd" clip-rule="evenodd" d="M8 15A7 7 0 108 1a7 7 0 000 14zM5.807 5H4v6h1.884V7.914l1.542 1.912h1.14l1.541-1.895V11H12V5h-1.816L8 7.794 5.807 5z" fill="#D20D00"/></svg><svg fill="none" viewBox="0 0 56 56" id="peculiarity-1" xmlns="http://www.w3.org/2000/svg"><path d="M26.473 36.575l10.29-10.26-1.964-1.97-8.326 8.302-4.106-4.094-1.964 1.97 6.07 6.052z" fill="#DDB44C"/><path fill-rule="evenodd" clip-rule="evenodd" d="M10.5 16.528h5.564V10.5h2.782v6.028h19.475V10.5h2.782v6.028h5.564v28.748H10.5V16.528zm2.782 25.966V19.31h30.603v23.184H13.282z" fill="#DDB44C"/></svg><svg fill="none" viewBox="0 0 56 56" id="peculiarity-2" xmlns="http://www.w3.org/2000/svg"><path fill-rule="evenodd" clip-rule="evenodd" d="M25.595 9.333h-4.446l-2.082 12.492H10.5v23.943h34.353V21.825H32.361V16.1a6.767 6.767 0 00-6.766-6.767zM21.95 42.645H41.73V24.948H29.238V16.1a3.643 3.643 0 00-3.643-3.644h-1.8l-1.844 11.06v19.13zm-3.123 0V24.948h-5.205v17.697h5.205z" fill="#DDB44C"/></svg><svg fill="none" viewBox="0 0 56 56" id="peculiarity-3" xmlns="http://www.w3.org/2000/svg"><path d="M26.163 34.118l11.184-11.152-2.135-2.14-9.049 9.022-4.462-4.449-2.134 2.141 6.596 6.578z" fill="#DDB44C"/><path fill-rule="evenodd" clip-rule="evenodd" d="M35.717 11.278l-7.26-3.111-7.26 3.111-8.361-1.194V27.75c0 6.898 3.71 13.262 9.712 16.661l6.042 3.422 5.904-3.404a19.148 19.148 0 009.584-16.588V10.084l-8.36 1.194zm-14.109 3.113l6.849-2.935 6.849 2.935 5.748-.821v14.27c0 5.765-3.077 11.09-8.07 13.97l-4.408 2.541-4.538-2.57a16.125 16.125 0 01-8.179-14.031V13.57l5.75.821z" fill="#DDB44C"/></svg><svg fill="none" viewBox="0 0 56 56" id="peculiarity-4" xmlns="http://www.w3.org/2000/svg"><path fill-rule="evenodd" clip-rule="evenodd" d="M25.595 9.333h-4.446l-2.082 12.492H10.5v23.943h34.353V21.825H32.361V16.1a6.767 6.767 0 00-6.766-6.767zM21.95 42.645H41.73V24.948H29.238V16.1a3.643 3.643 0 00-3.643-3.644h-1.8l-1.844 11.06v19.13zm-3.123 0V24.948h-5.205v17.697h5.205z" fill="#DDB44C"/></svg><svg fill="none" viewBox="0 0 56 56" id="peculiarity-5" xmlns="http://www.w3.org/2000/svg"><path fill-rule="evenodd" clip-rule="evenodd" d="M27.857 9.137l6.178 12.351 13.655 2.06-9.837 9.691 2.261 13.624-12.257-6.361-12.258 6.36 2.262-13.623-9.838-9.692 13.656-2.059 6.178-12.35zm0 6.604l-4.222 8.44-9.331 1.407 6.722 6.623-1.546 9.31 8.377-4.347 8.376 4.346-1.545-9.31 6.722-6.622-9.332-1.407-4.221-8.44z" fill="#DDB44C"/></svg><svg fill="none" viewBox="0 0 100 100" id="quote" xmlns="http://www.w3.org/2000/svg"><path d="M45.33 18.353c-12.302 7.877-18.453 17.364-18.453 28.46 0 3.451.6 5.177 1.803 5.177l1.237-.334c.973-.375 1.76-.562 2.363-.562 3.525 0 6.467 1.28 8.828 3.843 2.36 2.563 3.542 5.725 3.544 9.488-.002 3.617-1.279 6.686-3.829 9.21-2.55 2.52-5.625 3.78-9.225 3.78-5.025 0-9.17-2.065-12.437-6.196-3.258-4.125-4.888-9.31-4.888-15.553-.002-7.063 1.384-13.524 4.157-19.385 2.779-5.858 7.016-11.155 12.712-15.89 5.7-4.732 9.338-7.098 10.913-7.1 1.05 0 1.912.506 2.587 1.518.675 1.01 1.013 1.89 1.013 2.64l-.335.9.01.004zm40.5 0c-12.302 7.875-18.452 17.362-18.45 28.462 0 3.453.6 5.179 1.803 5.179l1.237-.335c.973-.375 1.76-.562 2.363-.562 3.45 0 6.374 1.281 8.772 3.843 2.402 2.559 3.602 5.721 3.6 9.488-.002 3.617-1.278 6.687-3.828 9.21-2.55 2.52-5.625 3.78-9.225 3.78-5.025 0-9.171-2.065-12.438-6.196-3.258-4.125-4.887-9.31-4.887-15.553-.005-7.138 1.402-13.654 4.218-19.55 2.813-5.898 7.05-11.176 12.71-15.835 5.67-4.66 9.29-6.99 10.86-6.99 1.051 0 1.916.506 2.593 1.518.673 1.013 1.01 1.894 1.01 2.644l-.338.897z" fill="#CFCFCF"/></svg><svg fill="none" viewBox="0 0 20 20" id="search" xmlns="http://www.w3.org/2000/svg"><path fill-rule="evenodd" clip-rule="evenodd" d="M13.936 12.754a6.668 6.668 0 10-1.177 1.176l.036.037 3.535 3.536a.833.833 0 101.18-1.18l-3.536-3.534-.038-.035zm-1.73-7.625a5 5 0 11-7.013 7.128 5 5 0 017.013-7.128z" fill="#7F7F80"/></svg><svg fill="none" viewBox="0 0 16 16" id="walk" xmlns="http://www.w3.org/2000/svg"><path d="M5.964 10.57l1.222 1.188-1.056 2.775a.795.795 0 01-.74.499.878.878 0 01-.272-.044.761.761 0 01-.468-.984l1.314-3.435z" fill="#7F7F80"/><path d="M3.683 7.53l.725-1.35c.196-.352.483-.646.83-.851 1.676-.97 1.887-.954 2.098-.94l1.132.074c.347.014.589.102 1.751 1.761a.296.296 0 00.197.118l1.388.205a.668.668 0 01.574.763.682.682 0 01-.785.558l-1.389-.205a1.676 1.676 0 01-1.117-.676c-.06-.088-.105-.161-.166-.234l-.89 2.745L9.268 10.7c.181.176.332.411.423.646l.95 2.701c.152.396-.075.837-.482.969a.788.788 0 01-.257.044.814.814 0 01-.754-.514l-.951-2.7c-.015-.03-.03-.045-.046-.074L5.948 9.615A1.215 1.215 0 015.6 8.47l.483-2.084c-.045.029-.09.058-.15.088a.826.826 0 00-.318.323l-.724 1.35a.696.696 0 01-.92.279.665.665 0 01-.288-.895zM9.65 2.737c.09-.814-.514-1.546-1.351-1.635-.837-.088-1.59.5-1.68 1.314-.092.814.513 1.545 1.35 1.634.837.089 1.589-.5 1.68-1.313z" fill="#7F7F80"/></svg></svg>