<svg width="16" height="16" viewBox="0 0 16 16" fill="none" xmlns="http://www.w3.org/2000/svg">
<path d="M5.96356 10.5692L7.1862 11.7582L6.1296 14.5325C6.00884 14.8408 5.70696 15.0316 5.38998 15.0316C5.29941 15.0316 5.20884 15.0169 5.11828 14.9876C4.71073 14.8408 4.49941 14.4004 4.65035 14.0041L5.96356 10.5692Z" fill="#7F7F80"/>
<path d="M3.68341 7.53055L4.40794 6.18009C4.60417 5.8278 4.89096 5.53422 5.23813 5.32872C6.9136 4.35991 7.12492 4.37459 7.33624 4.38927L8.46832 4.46266C8.81549 4.47734 9.057 4.56541 10.2193 6.22413C10.2645 6.28285 10.3249 6.32688 10.4155 6.34156L11.8042 6.54707C12.1815 6.60578 12.4381 6.9434 12.3778 7.31037C12.3174 7.67734 11.9702 7.92688 11.5928 7.86817L10.2042 7.66266C9.75134 7.58927 9.34379 7.3544 9.08719 6.98743C9.02681 6.89936 8.98153 6.82596 8.92115 6.75257L8.03058 9.49752L9.26832 10.7012C9.44945 10.8773 9.6004 11.1122 9.69096 11.3471L10.6419 14.048C10.7928 14.4443 10.5664 14.8847 10.1589 15.0168C10.0683 15.0461 9.99285 15.0608 9.90228 15.0608C9.57021 15.0608 9.26832 14.8553 9.14756 14.5471L8.19662 11.8461C8.18153 11.8168 8.16643 11.8021 8.15134 11.7728L5.94757 9.61496C5.63058 9.3067 5.50983 8.88101 5.6004 8.47L6.08341 6.3856C6.03813 6.41496 5.99285 6.44431 5.93247 6.47367C5.79662 6.54707 5.69096 6.6645 5.61549 6.79661L4.89096 8.14707C4.77021 8.36725 4.5287 8.49936 4.28719 8.49936C4.18153 8.49936 4.07587 8.47 3.97021 8.42596C3.63813 8.24982 3.51738 7.85349 3.68341 7.53055Z" fill="#7F7F80"/>
<path d="M9.64915 2.73653C9.74025 1.92256 9.13557 1.19089 8.29857 1.1023C7.46156 1.0137 6.70918 1.60174 6.61808 2.4157C6.52698 3.22967 7.13165 3.96135 7.96866 4.04994C8.80566 4.13853 9.55804 3.5505 9.64915 2.73653Z" fill="#7F7F80"/>
</svg>
